<svg width="374" height="415" viewBox="0 0 374 415" fill="none" xmlns="http://www.w3.org/2000/svg">
<rect width="374" height="415" rx="20" fill="#16161D"/>
<rect x="277.5" y="19.5" width="74" height="26" rx="9.5" stroke="#8C89B4" stroke-opacity="0.5"/>
<path d="M290.932 38L287.812 30.692V38H286.972V29.384H288.136L291.328 36.896L294.544 29.384H295.696V38H294.868V30.692L291.724 38H290.932ZM300.108 38.12C299.676 38.12 299.276 38.04 298.908 37.88C298.54 37.72 298.22 37.492 297.948 37.196C297.684 36.9 297.476 36.552 297.324 36.152C297.18 35.752 297.108 35.312 297.108 34.832C297.108 34.36 297.18 33.924 297.324 33.524C297.476 33.124 297.684 32.78 297.948 32.492C298.22 32.196 298.54 31.968 298.908 31.808C299.276 31.648 299.676 31.568 300.108 31.568C300.548 31.568 300.952 31.648 301.32 31.808C301.688 31.968 302.004 32.196 302.268 32.492C302.54 32.78 302.748 33.124 302.892 33.524C303.044 33.924 303.12 34.36 303.12 34.832C303.12 35.312 303.044 35.752 302.892 36.152C302.748 36.552 302.54 36.9 302.268 37.196C302.004 37.492 301.688 37.72 301.32 37.88C300.952 38.04 300.548 38.12 300.108 38.12ZM300.108 37.4C300.524 37.4 300.892 37.296 301.212 37.088C301.54 36.872 301.796 36.572 301.98 36.188C302.172 35.804 302.268 35.352 302.268 34.832C302.268 34.312 302.172 33.864 301.98 33.488C301.796 33.112 301.54 32.82 301.212 32.612C300.892 32.404 300.524 32.3 300.108 32.3C299.7 32.3 299.332 32.404 299.004 32.612C298.684 32.82 298.428 33.112 298.236 33.488C298.052 33.864 297.96 34.312 297.96 34.832C297.96 35.352 298.052 35.804 298.236 36.188C298.428 36.572 298.684 36.872 299.004 37.088C299.332 37.296 299.7 37.4 300.108 37.4ZM305.318 34.316V38H304.478V31.676H305.258V32.864C305.466 32.48 305.75 32.168 306.11 31.928C306.478 31.68 306.89 31.556 307.346 31.556C308.002 31.556 308.526 31.76 308.918 32.168C309.318 32.576 309.518 33.152 309.518 33.896V38H308.678V34.184C308.678 33.576 308.542 33.108 308.27 32.78C308.006 32.452 307.614 32.288 307.094 32.288C306.766 32.288 306.466 32.376 306.194 32.552C305.922 32.72 305.706 32.956 305.546 33.26C305.394 33.564 305.318 33.916 305.318 34.316ZM314.527 37.196V37.94C314.367 38.012 314.215 38.06 314.071 38.084C313.927 38.108 313.775 38.12 313.615 38.12C313.271 38.12 312.959 38.056 312.679 37.928C312.399 37.8 312.175 37.596 312.007 37.316C311.847 37.036 311.767 36.668 311.767 36.212V32.384H310.279V31.676H311.767V29.804H312.607V31.676H314.587V32.384H312.607V36.032C312.607 36.528 312.715 36.872 312.931 37.064C313.155 37.256 313.439 37.352 313.783 37.352C313.919 37.352 314.043 37.34 314.155 37.316C314.275 37.292 314.399 37.252 314.527 37.196ZM316.697 34.316V38H315.857V29.384H316.697V32.84C316.889 32.464 317.161 32.156 317.513 31.916C317.865 31.676 318.269 31.556 318.725 31.556C319.381 31.556 319.905 31.76 320.297 32.168C320.697 32.576 320.897 33.152 320.897 33.896V38H320.057V34.184C320.057 33.576 319.921 33.108 319.649 32.78C319.385 32.452 318.993 32.288 318.473 32.288C318.145 32.288 317.845 32.376 317.573 32.552C317.301 32.72 317.085 32.956 316.925 33.26C316.773 33.564 316.697 33.916 316.697 34.316Z" fill="#AEABD8"/>
<path d="M336 31L340.333 35L344 31" stroke="#AEABD8"/>
<path d="M319 248.5C324.523 248.5 329.037 244.016 328.641 238.508C326.183 204.366 311.195 172.096 286.238 147.737C258.857 121.013 221.722 106 183 106C144.278 106 107.143 121.013 79.7624 147.737C54.8052 172.096 39.8166 204.366 37.3591 238.508C36.9626 244.016 41.4772 248.5 47 248.5L76.2317 248.5C81.7545 248.5 86.1756 244.009 86.7732 238.519C89.1005 217.139 98.8536 197.059 114.574 181.715C132.722 164.002 157.335 154.051 183 154.051C208.665 154.051 233.278 164.002 251.426 181.715C267.146 197.059 276.9 217.139 279.227 238.519C279.824 244.009 284.245 248.5 289.768 248.5H319Z" fill="#5A473A"/>
<path d="M222.249 121.778C223.898 116.452 220.878 110.772 215.436 109.561C196.625 105.378 177.116 104.867 158.041 108.098C135.626 111.894 114.43 120.75 96.1432 133.96C77.8568 147.169 62.9862 164.367 52.7178 184.182C43.9939 201.016 38.7968 219.342 37.39 238.091C36.9767 243.599 41.4786 248.096 47.002 248.112L76.6419 248.196C82.1641 248.212 86.5976 243.735 87.2142 238.248C88.4718 227.055 91.7818 216.146 97.0137 206.05C103.791 192.973 113.605 181.622 125.675 172.903C137.744 164.185 151.733 158.34 166.527 155.834C178.068 153.88 189.849 154 201.296 156.161C206.671 157.175 212.184 154.274 213.802 149.049L222.249 121.778Z" fill="#F97316"/>
<path d="M310.685 203.325C315.949 201.462 318.7 195.632 316.383 190.551C305.925 167.62 289.417 147.732 268.468 132.968C247.415 118.132 222.74 109.078 197.011 106.658C191.517 106.141 186.917 110.522 186.76 116.037L185.953 144.477C185.796 150.003 190.165 154.555 195.648 155.264C211.398 157.299 226.444 163.112 239.409 172.249C252.364 181.379 262.746 193.479 269.681 207.417C272.114 212.308 277.724 214.986 282.874 213.164L310.685 203.325Z" fill="#573A32"/>
<path d="M36.512 34.592H44.528L45.248 36.728H35.624L36.512 34.592ZM45.728 41L40.472 26.648L35.144 41H32.48L39.08 23.768H41.984L48.536 41H45.728ZM55.0085 41.264C53.8405 41.264 52.8085 40.984 51.9125 40.424C51.0325 39.864 50.3365 39.088 49.8245 38.096C49.3285 37.088 49.0805 35.936 49.0805 34.64C49.0805 33.36 49.3365 32.224 49.8485 31.232C50.3605 30.24 51.0645 29.464 51.9605 28.904C52.8565 28.328 53.8725 28.04 55.0085 28.04C56.0645 28.04 57.0005 28.264 57.8165 28.712C58.6485 29.144 59.3285 29.768 59.8565 30.584C60.4005 31.384 60.7445 32.336 60.8885 33.44H58.3445C58.2165 32.416 57.8565 31.616 57.2645 31.04C56.6725 30.464 55.9285 30.176 55.0325 30.176C54.3285 30.176 53.7205 30.368 53.2085 30.752C52.6965 31.12 52.2965 31.632 52.0085 32.288C51.7205 32.944 51.5765 33.728 51.5765 34.64C51.5765 35.536 51.7205 36.32 52.0085 36.992C52.2965 37.664 52.6965 38.184 53.2085 38.552C53.7205 38.92 54.3285 39.104 55.0325 39.104C55.9445 39.104 56.6885 38.816 57.2645 38.24C57.8565 37.664 58.2245 36.864 58.3685 35.84H60.8885C60.7605 36.96 60.4325 37.928 59.9045 38.744C59.3765 39.544 58.6965 40.168 57.8645 40.616C57.0325 41.048 56.0805 41.264 55.0085 41.264ZM70.5044 38.648V40.784C70.1364 40.96 69.7764 41.08 69.4244 41.144C69.0884 41.208 68.7284 41.24 68.3444 41.24C67.5604 41.24 66.8644 41.096 66.2564 40.808C65.6644 40.52 65.2004 40.072 64.8644 39.464C64.5284 38.856 64.3604 38.088 64.3604 37.16V30.344H61.5524V28.28H64.3604V24.512H66.7844V28.28H70.6244V30.344H66.7844V36.608C66.7844 37.488 66.9764 38.104 67.3604 38.456C67.7604 38.808 68.2804 38.984 68.9204 38.984C69.2084 38.984 69.4804 38.96 69.7364 38.912C70.0084 38.848 70.2644 38.76 70.5044 38.648ZM75.3618 41H72.9378V28.28H75.3618V41ZM75.8898 25.328C75.8898 25.776 75.7218 26.16 75.3858 26.48C75.0658 26.784 74.6498 26.936 74.1378 26.936C73.6098 26.936 73.1778 26.784 72.8418 26.48C72.5218 26.16 72.3618 25.776 72.3618 25.328C72.3618 24.848 72.5218 24.464 72.8418 24.176C73.1778 23.872 73.6098 23.72 74.1378 23.72C74.6498 23.72 75.0658 23.872 75.3858 24.176C75.7218 24.464 75.8898 24.848 75.8898 25.328ZM89.2869 28.28L84.5109 41H81.8709L77.0949 28.28H79.7109L83.2389 38.216L86.8149 28.28H89.2869ZM93.4321 41H91.0081V28.28H93.4321V41ZM93.9601 25.328C93.9601 25.776 93.7921 26.16 93.4561 26.48C93.1361 26.784 92.7201 26.936 92.2081 26.936C91.6801 26.936 91.2481 26.784 90.9121 26.48C90.5921 26.16 90.4321 25.776 90.4321 25.328C90.4321 24.848 90.5921 24.464 90.9121 24.176C91.2481 23.872 91.6801 23.72 92.2081 23.72C92.7201 23.72 93.1361 23.872 93.4561 24.176C93.7921 24.464 93.9601 24.848 93.9601 25.328ZM103.973 38.648V40.784C103.605 40.96 103.245 41.08 102.893 41.144C102.557 41.208 102.197 41.24 101.813 41.24C101.029 41.24 100.333 41.096 99.7252 40.808C99.1332 40.52 98.6692 40.072 98.3332 39.464C97.9972 38.856 97.8292 38.088 97.8292 37.16V30.344H95.0212V28.28H97.8292V24.512H100.253V28.28H104.093V30.344H100.253V36.608C100.253 37.488 100.445 38.104 100.829 38.456C101.229 38.808 101.749 38.984 102.389 38.984C102.677 38.984 102.949 38.96 103.205 38.912C103.477 38.848 103.733 38.76 103.973 38.648ZM116.967 28.28L110.607 45.632H107.967L109.791 40.832L104.775 28.28H107.391L111.087 37.976L114.519 28.28H116.967Z" fill="white"/>
<path d="M172.216 204.2L166.432 218H162.016L167.632 205.472H160.432V201.776H172.216V204.2ZM179.292 218.24C178.076 218.24 176.972 218.008 175.98 217.544C175.004 217.08 174.228 216.448 173.652 215.648C173.076 214.832 172.764 213.904 172.716 212.864H176.868C176.98 213.424 177.244 213.848 177.66 214.136C178.092 214.408 178.628 214.544 179.268 214.544C179.844 214.544 180.284 214.44 180.588 214.232C180.908 214.024 181.124 213.768 181.236 213.464C181.364 213.16 181.428 212.864 181.428 212.576C181.428 212.272 181.356 211.968 181.212 211.664C181.084 211.36 180.852 211.104 180.516 210.896C180.18 210.672 179.708 210.56 179.1 210.56C178.524 210.56 178.028 210.68 177.612 210.92C177.196 211.16 176.9 211.536 176.724 212.048L173.292 210.896L174.732 201.776H184.716V205.472H177.732L177.396 207.56C177.764 207.384 178.156 207.256 178.572 207.176C178.988 207.08 179.404 207.032 179.82 207.032C181.196 207.032 182.316 207.304 183.18 207.848C184.044 208.392 184.676 209.096 185.076 209.96C185.492 210.808 185.7 211.688 185.7 212.6C185.7 213.256 185.572 213.92 185.316 214.592C185.06 215.248 184.668 215.856 184.14 216.416C183.612 216.96 182.948 217.4 182.148 217.736C181.348 218.072 180.396 218.24 179.292 218.24ZM192.107 211.712C191.083 211.712 190.155 211.488 189.323 211.04C188.507 210.576 187.859 209.96 187.379 209.192C186.899 208.424 186.659 207.584 186.659 206.672C186.659 205.744 186.899 204.904 187.379 204.152C187.859 203.384 188.507 202.776 189.323 202.328C190.155 201.864 191.083 201.632 192.107 201.632C193.131 201.632 194.051 201.864 194.867 202.328C195.699 202.776 196.355 203.384 196.835 204.152C197.315 204.904 197.555 205.744 197.555 206.672C197.555 207.584 197.315 208.424 196.835 209.192C196.355 209.96 195.699 210.576 194.867 211.04C194.051 211.488 193.131 211.712 192.107 211.712ZM192.107 208.808C192.491 208.808 192.843 208.736 193.163 208.592C193.483 208.432 193.739 208.192 193.931 207.872C194.123 207.552 194.219 207.152 194.219 206.672C194.219 206.176 194.123 205.776 193.931 205.472C193.739 205.152 193.483 204.92 193.163 204.776C192.843 204.616 192.491 204.536 192.107 204.536C191.739 204.536 191.387 204.616 191.051 204.776C190.731 204.92 190.467 205.152 190.259 205.472C190.067 205.776 189.971 206.176 189.971 206.672C189.971 207.152 190.067 207.552 190.259 207.872C190.467 208.192 190.731 208.432 191.051 208.592C191.387 208.736 191.739 208.808 192.107 208.808ZM196.571 218H193.331L202.595 201.776H205.835L196.571 218ZM207.563 218.216C206.539 218.216 205.611 217.992 204.779 217.544C203.963 217.08 203.315 216.464 202.835 215.696C202.355 214.928 202.115 214.088 202.115 213.176C202.115 212.248 202.355 211.408 202.835 210.656C203.315 209.888 203.963 209.28 204.779 208.832C205.611 208.368 206.539 208.136 207.563 208.136C208.587 208.136 209.507 208.368 210.323 208.832C211.155 209.28 211.811 209.888 212.291 210.656C212.771 211.408 213.011 212.248 213.011 213.176C213.011 214.088 212.771 214.928 212.291 215.696C211.811 216.464 211.155 217.08 210.323 217.544C209.507 217.992 208.587 218.216 207.563 218.216ZM207.563 215.312C207.947 215.312 208.299 215.24 208.619 215.096C208.939 214.936 209.195 214.696 209.387 214.376C209.579 214.056 209.675 213.656 209.675 213.176C209.675 212.68 209.579 212.28 209.387 211.976C209.195 211.656 208.939 211.424 208.619 211.28C208.299 211.12 207.947 211.04 207.563 211.04C207.195 211.04 206.843 211.12 206.507 211.28C206.187 211.424 205.923 211.656 205.715 211.976C205.523 212.28 205.427 212.68 205.427 213.176C205.427 213.656 205.523 214.056 205.715 214.376C205.923 214.696 206.187 214.936 206.507 215.096C206.843 215.24 207.195 215.312 207.563 215.312Z" fill="white"/>
<circle cx="44" cy="291" r="6" fill="#F97316"/>
<circle cx="264" cy="291" r="6" fill="#573A32"/>
<path d="M64.99 296H62.134V285.948H64.99C66.0633 285.948 66.9733 286.163 67.72 286.592C68.4667 287.012 69.0313 287.595 69.414 288.342C69.7967 289.089 69.988 289.952 69.988 290.932C69.988 291.903 69.792 292.771 69.4 293.536C69.008 294.292 68.434 294.894 67.678 295.342C66.9313 295.781 66.0353 296 64.99 296ZM63.184 286.858V295.09H64.962C65.8207 295.09 66.544 294.917 67.132 294.572C67.72 294.227 68.1633 293.741 68.462 293.116C68.77 292.491 68.924 291.763 68.924 290.932C68.924 290.101 68.77 289.383 68.462 288.776C68.1633 288.16 67.72 287.689 67.132 287.362C66.544 287.026 65.8207 286.858 64.962 286.858H63.184ZM76.143 296V294.656C75.9283 295.113 75.6063 295.477 75.177 295.748C74.7476 296.009 74.2436 296.14 73.665 296.14C72.8996 296.14 72.2883 295.944 71.831 295.552C71.3736 295.151 71.145 294.619 71.145 293.956C71.145 293.237 71.4296 292.696 71.999 292.332C72.5683 291.959 73.413 291.772 74.533 291.772C74.757 291.772 74.9763 291.777 75.191 291.786C75.4056 291.795 75.6903 291.819 76.045 291.856V291.226C76.045 290.61 75.8863 290.129 75.569 289.784C75.261 289.439 74.827 289.266 74.267 289.266C73.6696 289.266 73.1936 289.443 72.839 289.798C72.4843 290.143 72.3023 290.615 72.293 291.212H71.397C71.4063 290.661 71.5323 290.185 71.775 289.784C72.0176 289.373 72.349 289.056 72.769 288.832C73.1983 288.599 73.693 288.482 74.253 288.482C75.121 288.482 75.793 288.72 76.269 289.196C76.745 289.672 76.983 290.339 76.983 291.198V296H76.143ZM72.083 293.928C72.083 294.376 72.2416 294.74 72.559 295.02C72.8763 295.291 73.2916 295.426 73.805 295.426C74.4956 295.426 75.0416 295.221 75.443 294.81C75.8443 294.39 76.045 293.835 76.045 293.144V292.486C75.7276 292.458 75.4523 292.439 75.219 292.43C74.995 292.421 74.7803 292.416 74.575 292.416C73.7443 292.416 73.119 292.542 72.699 292.794C72.2883 293.037 72.083 293.415 72.083 293.928ZM80.0245 296H79.0445V288.622H80.0245V296ZM80.3185 286.914C80.3185 287.129 80.2438 287.306 80.0945 287.446C79.9545 287.586 79.7631 287.656 79.5205 287.656C79.2965 287.656 79.1098 287.586 78.9605 287.446C78.8111 287.306 78.7365 287.129 78.7365 286.914C78.7365 286.699 78.8111 286.527 78.9605 286.396C79.1098 286.256 79.2965 286.186 79.5205 286.186C79.7631 286.186 79.9545 286.256 80.0945 286.396C80.2438 286.527 80.3185 286.699 80.3185 286.914ZM83.128 296H82.148V285.948H83.128V296ZM90.9355 288.622L87.1555 298.702H86.1055L87.1835 295.902L84.2575 288.622H85.3075L87.6875 294.726L89.9415 288.622H90.9355ZM101.762 292.304C101.762 293.06 101.626 293.727 101.356 294.306C101.094 294.885 100.721 295.337 100.236 295.664C99.7595 295.981 99.1902 296.14 98.5275 296.14C97.9769 296.14 97.4775 295.995 97.0295 295.706C96.5815 295.417 96.2315 295.011 95.9795 294.488V298.702H94.9995V288.622H95.9095V290.218C96.1615 289.667 96.5209 289.243 96.9875 288.944C97.4542 288.636 97.9675 288.482 98.5275 288.482C99.1809 288.482 99.7502 288.645 100.236 288.972C100.721 289.289 101.094 289.737 101.356 290.316C101.626 290.885 101.762 291.548 101.762 292.304ZM100.768 292.304C100.768 291.371 100.544 290.643 100.096 290.12C99.6569 289.597 99.0782 289.336 98.3595 289.336C97.9115 289.336 97.5055 289.453 97.1415 289.686C96.7775 289.919 96.4882 290.255 96.2735 290.694C96.0682 291.133 95.9655 291.669 95.9655 292.304C95.9655 292.911 96.0682 293.438 96.2735 293.886C96.4789 294.334 96.7635 294.679 97.1275 294.922C97.4915 295.165 97.9022 295.286 98.3595 295.286C99.0782 295.286 99.6569 295.025 100.096 294.502C100.544 293.979 100.768 293.247 100.768 292.304ZM107.875 296V294.656C107.661 295.113 107.339 295.477 106.909 295.748C106.48 296.009 105.976 296.14 105.397 296.14C104.632 296.14 104.021 295.944 103.563 295.552C103.106 295.151 102.877 294.619 102.877 293.956C102.877 293.237 103.162 292.696 103.731 292.332C104.301 291.959 105.145 291.772 106.265 291.772C106.489 291.772 106.709 291.777 106.923 291.786C107.138 291.795 107.423 291.819 107.777 291.856V291.226C107.777 290.61 107.619 290.129 107.301 289.784C106.993 289.439 106.559 289.266 105.999 289.266C105.402 289.266 104.926 289.443 104.571 289.798C104.217 290.143 104.035 290.615 104.025 291.212H103.129C103.139 290.661 103.265 290.185 103.507 289.784C103.75 289.373 104.081 289.056 104.501 288.832C104.931 288.599 105.425 288.482 105.985 288.482C106.853 288.482 107.525 288.72 108.001 289.196C108.477 289.672 108.715 290.339 108.715 291.198V296H107.875ZM103.815 293.928C103.815 294.376 103.974 294.74 104.291 295.02C104.609 295.291 105.024 295.426 105.537 295.426C106.228 295.426 106.774 295.221 107.175 294.81C107.577 294.39 107.777 293.835 107.777 293.144V292.486C107.46 292.458 107.185 292.439 106.951 292.43C106.727 292.421 106.513 292.416 106.307 292.416C105.477 292.416 104.851 292.542 104.431 292.794C104.021 293.037 103.815 293.415 103.815 293.928ZM116.242 288.622L112.462 298.702H111.412L112.49 295.902L109.564 288.622H110.614L112.994 294.726L115.248 288.622H116.242ZM118.36 296H117.38V288.622H118.29V290.008C118.542 289.532 118.874 289.159 119.284 288.888C119.704 288.617 120.176 288.482 120.698 288.482C121.277 288.482 121.767 288.631 122.168 288.93C122.579 289.229 122.859 289.649 123.008 290.19C123.232 289.667 123.568 289.252 124.016 288.944C124.464 288.636 124.978 288.482 125.556 288.482C126.322 288.482 126.924 288.725 127.362 289.21C127.81 289.686 128.034 290.353 128.034 291.212V296H127.068V291.534C127.068 290.825 126.91 290.283 126.592 289.91C126.284 289.527 125.832 289.336 125.234 289.336C124.861 289.336 124.52 289.439 124.212 289.644C123.904 289.84 123.657 290.115 123.47 290.47C123.293 290.815 123.204 291.217 123.204 291.674V296H122.224V291.534C122.224 290.825 122.07 290.283 121.762 289.91C121.454 289.527 120.997 289.336 120.39 289.336C120.017 289.336 119.672 289.439 119.354 289.644C119.046 289.84 118.804 290.115 118.626 290.47C118.449 290.815 118.36 291.217 118.36 291.674V296ZM132.993 296.14C132.303 296.14 131.696 295.981 131.173 295.664C130.66 295.337 130.259 294.88 129.969 294.292C129.689 293.704 129.549 293.023 129.549 292.248C129.549 291.529 129.694 290.89 129.983 290.33C130.282 289.761 130.683 289.313 131.187 288.986C131.701 288.65 132.284 288.482 132.937 288.482C133.46 288.482 133.931 288.585 134.351 288.79C134.781 288.986 135.14 289.266 135.429 289.63C135.728 289.994 135.947 290.423 136.087 290.918C136.237 291.403 136.288 291.945 136.241 292.542H130.081V291.87H135.219C135.182 291.039 134.958 290.395 134.547 289.938C134.146 289.471 133.605 289.238 132.923 289.238C132.447 289.238 132.027 289.364 131.663 289.616C131.309 289.859 131.029 290.204 130.823 290.652C130.618 291.1 130.515 291.632 130.515 292.248C130.515 292.883 130.613 293.438 130.809 293.914C131.005 294.381 131.285 294.74 131.649 294.992C132.023 295.244 132.466 295.37 132.979 295.37C133.595 295.37 134.104 295.207 134.505 294.88C134.916 294.544 135.182 294.087 135.303 293.508H136.269C136.101 294.32 135.723 294.964 135.135 295.44C134.557 295.907 133.843 296.14 132.993 296.14ZM138.841 291.702V296H137.861V288.622H138.771V290.008C139.014 289.56 139.345 289.196 139.765 288.916C140.194 288.627 140.675 288.482 141.207 288.482C141.972 288.482 142.584 288.72 143.041 289.196C143.508 289.672 143.741 290.344 143.741 291.212V296H142.761V291.548C142.761 290.839 142.602 290.293 142.285 289.91C141.977 289.527 141.52 289.336 140.913 289.336C140.53 289.336 140.18 289.439 139.863 289.644C139.546 289.84 139.294 290.115 139.107 290.47C138.93 290.825 138.841 291.235 138.841 291.702ZM149.585 295.062V295.93C149.398 296.014 149.221 296.07 149.053 296.098C148.885 296.126 148.707 296.14 148.521 296.14C148.119 296.14 147.755 296.065 147.429 295.916C147.102 295.767 146.841 295.529 146.645 295.202C146.458 294.875 146.365 294.446 146.365 293.914V289.448H144.629V288.622H146.365V286.438H147.345V288.622H149.655V289.448H147.345V293.704C147.345 294.283 147.471 294.684 147.723 294.908C147.984 295.132 148.315 295.244 148.717 295.244C148.875 295.244 149.02 295.23 149.151 295.202C149.291 295.174 149.435 295.127 149.585 295.062Z" fill="white"/>
<path d="M42.968 322.18C42.176 322.18 41.462 322.024 40.826 321.712C40.19 321.388 39.68 320.95 39.296 320.398C38.924 319.834 38.72 319.192 38.684 318.472H40.502C40.574 319.12 40.832 319.63 41.276 320.002C41.72 320.362 42.284 320.542 42.968 320.542C43.52 320.542 43.982 320.44 44.354 320.236C44.726 320.02 45.002 319.732 45.182 319.372C45.374 319 45.47 318.58 45.47 318.112C45.47 317.692 45.368 317.302 45.164 316.942C44.972 316.582 44.69 316.294 44.318 316.078C43.946 315.862 43.49 315.754 42.95 315.754C42.41 315.754 41.936 315.868 41.528 316.096C41.132 316.312 40.808 316.642 40.556 317.086L39.08 316.618L40.16 309.832H46.658V311.452H41.474L40.934 314.962C41.282 314.698 41.648 314.5 42.032 314.368C42.416 314.236 42.812 314.17 43.22 314.17C44.12 314.17 44.876 314.356 45.488 314.728C46.1 315.088 46.562 315.568 46.874 316.168C47.198 316.768 47.36 317.416 47.36 318.112C47.36 318.652 47.264 319.168 47.072 319.66C46.88 320.152 46.592 320.59 46.208 320.974C45.836 321.346 45.38 321.64 44.84 321.856C44.3 322.072 43.676 322.18 42.968 322.18ZM52.9524 322.18C52.1604 322.18 51.4464 322.024 50.8104 321.712C50.1744 321.388 49.6644 320.95 49.2804 320.398C48.9084 319.834 48.7044 319.192 48.6684 318.472H50.4864C50.5584 319.12 50.8164 319.63 51.2604 320.002C51.7044 320.362 52.2684 320.542 52.9524 320.542C53.5044 320.542 53.9664 320.44 54.3384 320.236C54.7104 320.02 54.9864 319.732 55.1664 319.372C55.3584 319 55.4544 318.58 55.4544 318.112C55.4544 317.692 55.3524 317.302 55.1484 316.942C54.9564 316.582 54.6744 316.294 54.3024 316.078C53.9304 315.862 53.4744 315.754 52.9344 315.754C52.3944 315.754 51.9204 315.868 51.5124 316.096C51.1164 316.312 50.7924 316.642 50.5404 317.086L49.0644 316.618L50.1444 309.832H56.6424V311.452H51.4584L50.9184 314.962C51.2664 314.698 51.6324 314.5 52.0164 314.368C52.4004 314.236 52.7964 314.17 53.2044 314.17C54.1044 314.17 54.8604 314.356 55.4724 314.728C56.0844 315.088 56.5464 315.568 56.8584 316.168C57.1824 316.768 57.3444 317.416 57.3444 318.112C57.3444 318.652 57.2484 319.168 57.0564 319.66C56.8644 320.152 56.5764 320.59 56.1924 320.974C55.8204 321.346 55.3644 321.64 54.8244 321.856C54.2844 322.072 53.6604 322.18 52.9524 322.18ZM62.2888 317.284C61.5568 317.284 60.9028 317.116 60.3268 316.78C59.7628 316.444 59.3188 315.988 58.9948 315.412C58.6708 314.836 58.5088 314.2 58.5088 313.504C58.5088 312.808 58.6708 312.178 58.9948 311.614C59.3188 311.038 59.7628 310.582 60.3268 310.246C60.9028 309.898 61.5568 309.724 62.2888 309.724C63.0328 309.724 63.6868 309.898 64.2508 310.246C64.8268 310.582 65.2768 311.038 65.6008 311.614C65.9248 312.178 66.0868 312.808 66.0868 313.504C66.0868 314.2 65.9248 314.836 65.6008 315.412C65.2768 315.988 64.8268 316.444 64.2508 316.78C63.6868 317.116 63.0328 317.284 62.2888 317.284ZM62.2888 315.97C62.7088 315.97 63.0868 315.874 63.4228 315.682C63.7588 315.49 64.0288 315.214 64.2328 314.854C64.4488 314.482 64.5568 314.032 64.5568 313.504C64.5568 312.964 64.4488 312.514 64.2328 312.154C64.0288 311.782 63.7588 311.506 63.4228 311.326C63.0868 311.134 62.7088 311.038 62.2888 311.038C61.8928 311.038 61.5208 311.134 61.1728 311.326C60.8248 311.506 60.5488 311.782 60.3447 312.154C60.1408 312.514 60.0388 312.964 60.0388 313.504C60.0388 314.032 60.1408 314.482 60.3447 314.854C60.5488 315.214 60.8248 315.49 61.1728 315.682C61.5208 315.874 61.8928 315.97 62.2888 315.97ZM64.8808 322H63.3868L70.2628 309.832H71.7568L64.8808 322ZM73.0528 322.144C72.3208 322.144 71.6668 321.976 71.0908 321.64C70.5268 321.304 70.0828 320.848 69.7588 320.272C69.4348 319.696 69.2728 319.06 69.2728 318.364C69.2728 317.668 69.4348 317.038 69.7588 316.474C70.0828 315.898 70.5268 315.442 71.0908 315.106C71.6668 314.758 72.3208 314.584 73.0528 314.584C73.7848 314.584 74.4328 314.758 74.9968 315.106C75.5728 315.442 76.0228 315.898 76.3468 316.474C76.6708 317.038 76.8328 317.668 76.8328 318.364C76.8328 319.06 76.6708 319.696 76.3468 320.272C76.0228 320.848 75.5728 321.304 74.9968 321.64C74.4328 321.976 73.7848 322.144 73.0528 322.144ZM73.0528 320.83C73.4608 320.83 73.8328 320.74 74.1688 320.56C74.5168 320.368 74.7928 320.086 74.9968 319.714C75.2008 319.342 75.3028 318.892 75.3028 318.364C75.3028 317.824 75.2008 317.374 74.9968 317.014C74.7928 316.654 74.5168 316.384 74.1688 316.204C73.8328 316.012 73.4608 315.916 73.0528 315.916C72.6448 315.916 72.2668 316.012 71.9188 316.204C71.5828 316.384 71.3068 316.654 71.0908 317.014C70.8868 317.374 70.7848 317.824 70.7848 318.364C70.7848 318.892 70.8868 319.342 71.0908 319.714C71.3068 320.086 71.5828 320.368 71.9188 320.56C72.2668 320.74 72.6448 320.83 73.0528 320.83Z" fill="white"/>
<path d="M266.802 320.38V322H258.936V320.956L262.734 316.852C263.214 316.324 263.598 315.868 263.886 315.484C264.186 315.088 264.402 314.722 264.534 314.386C264.666 314.05 264.732 313.702 264.732 313.342C264.732 312.934 264.642 312.574 264.462 312.262C264.294 311.95 264.054 311.71 263.742 311.542C263.43 311.374 263.064 311.29 262.644 311.29C262.188 311.29 261.792 311.38 261.456 311.56C261.132 311.74 260.874 311.998 260.682 312.334C260.49 312.67 260.394 313.066 260.394 313.522H258.612C258.612 312.766 258.786 312.1 259.134 311.524C259.494 310.936 259.98 310.48 260.592 310.156C261.204 309.82 261.912 309.652 262.716 309.652C263.472 309.652 264.144 309.802 264.732 310.102C265.332 310.402 265.8 310.816 266.136 311.344C266.472 311.86 266.64 312.454 266.64 313.126C266.64 313.582 266.568 314.02 266.424 314.44C266.28 314.848 266.028 315.298 265.668 315.79C265.308 316.282 264.792 316.888 264.12 317.608L261.672 320.38H266.802ZM268.48 315.934C268.48 313.918 268.864 312.37 269.632 311.29C270.412 310.198 271.522 309.652 272.962 309.652C274.402 309.652 275.512 310.198 276.292 311.29C277.072 312.37 277.462 313.918 277.462 315.934C277.462 317.95 277.072 319.498 276.292 320.578C275.524 321.646 274.414 322.18 272.962 322.18C271.51 322.18 270.4 321.646 269.632 320.578C268.864 319.498 268.48 317.95 268.48 315.934ZM270.352 315.934C270.352 317.434 270.574 318.58 271.018 319.372C271.462 320.152 272.11 320.542 272.962 320.542C273.814 320.542 274.462 320.152 274.906 319.372C275.362 318.592 275.59 317.446 275.59 315.934C275.59 314.41 275.362 313.258 274.906 312.478C274.462 311.686 273.814 311.29 272.962 311.29C272.122 311.29 271.474 311.686 271.018 312.478C270.574 313.258 270.352 314.41 270.352 315.934ZM282.658 317.284C281.926 317.284 281.272 317.116 280.696 316.78C280.132 316.444 279.688 315.988 279.364 315.412C279.04 314.836 278.878 314.2 278.878 313.504C278.878 312.808 279.04 312.178 279.364 311.614C279.688 311.038 280.132 310.582 280.696 310.246C281.272 309.898 281.926 309.724 282.658 309.724C283.402 309.724 284.056 309.898 284.62 310.246C285.196 310.582 285.646 311.038 285.97 311.614C286.294 312.178 286.456 312.808 286.456 313.504C286.456 314.2 286.294 314.836 285.97 315.412C285.646 315.988 285.196 316.444 284.62 316.78C284.056 317.116 283.402 317.284 282.658 317.284ZM282.658 315.97C283.078 315.97 283.456 315.874 283.792 315.682C284.128 315.49 284.398 315.214 284.602 314.854C284.818 314.482 284.926 314.032 284.926 313.504C284.926 312.964 284.818 312.514 284.602 312.154C284.398 311.782 284.128 311.506 283.792 311.326C283.456 311.134 283.078 311.038 282.658 311.038C282.262 311.038 281.89 311.134 281.542 311.326C281.194 311.506 280.918 311.782 280.714 312.154C280.51 312.514 280.408 312.964 280.408 313.504C280.408 314.032 280.51 314.482 280.714 314.854C280.918 315.214 281.194 315.49 281.542 315.682C281.89 315.874 282.262 315.97 282.658 315.97ZM285.25 322H283.756L290.632 309.832H292.126L285.25 322ZM293.422 322.144C292.69 322.144 292.036 321.976 291.46 321.64C290.896 321.304 290.452 320.848 290.128 320.272C289.804 319.696 289.642 319.06 289.642 318.364C289.642 317.668 289.804 317.038 290.128 316.474C290.452 315.898 290.896 315.442 291.46 315.106C292.036 314.758 292.69 314.584 293.422 314.584C294.154 314.584 294.802 314.758 295.366 315.106C295.942 315.442 296.392 315.898 296.716 316.474C297.04 317.038 297.202 317.668 297.202 318.364C297.202 319.06 297.04 319.696 296.716 320.272C296.392 320.848 295.942 321.304 295.366 321.64C294.802 321.976 294.154 322.144 293.422 322.144ZM293.422 320.83C293.83 320.83 294.202 320.74 294.538 320.56C294.886 320.368 295.162 320.086 295.366 319.714C295.57 319.342 295.672 318.892 295.672 318.364C295.672 317.824 295.57 317.374 295.366 317.014C295.162 316.654 294.886 316.384 294.538 316.204C294.202 316.012 293.83 315.916 293.422 315.916C293.014 315.916 292.636 316.012 292.288 316.204C291.952 316.384 291.676 316.654 291.46 317.014C291.256 317.374 291.154 317.824 291.154 318.364C291.154 318.892 291.256 319.342 291.46 319.714C291.676 320.086 291.952 320.368 292.288 320.56C292.636 320.74 293.014 320.83 293.422 320.83Z" fill="white"/>
<path d="M283.184 297H282.134V286.948H283.184V291.358H288.896V286.948H289.946V297H288.896V292.268H283.184V297ZM295.094 297.14C294.59 297.14 294.124 297.047 293.694 296.86C293.265 296.673 292.892 296.407 292.574 296.062C292.266 295.717 292.024 295.311 291.846 294.844C291.678 294.377 291.594 293.864 291.594 293.304C291.594 292.753 291.678 292.245 291.846 291.778C292.024 291.311 292.266 290.91 292.574 290.574C292.892 290.229 293.265 289.963 293.694 289.776C294.124 289.589 294.59 289.496 295.094 289.496C295.608 289.496 296.079 289.589 296.508 289.776C296.938 289.963 297.306 290.229 297.614 290.574C297.932 290.91 298.174 291.311 298.342 291.778C298.52 292.245 298.608 292.753 298.608 293.304C298.608 293.864 298.52 294.377 298.342 294.844C298.174 295.311 297.932 295.717 297.614 296.062C297.306 296.407 296.938 296.673 296.508 296.86C296.079 297.047 295.608 297.14 295.094 297.14ZM295.094 296.3C295.58 296.3 296.009 296.179 296.382 295.936C296.765 295.684 297.064 295.334 297.278 294.886C297.502 294.438 297.614 293.911 297.614 293.304C297.614 292.697 297.502 292.175 297.278 291.736C297.064 291.297 296.765 290.957 296.382 290.714C296.009 290.471 295.58 290.35 295.094 290.35C294.618 290.35 294.189 290.471 293.806 290.714C293.433 290.957 293.134 291.297 292.91 291.736C292.696 292.175 292.588 292.697 292.588 293.304C292.588 293.911 292.696 294.438 292.91 294.886C293.134 295.334 293.433 295.684 293.806 295.936C294.189 296.179 294.618 296.3 295.094 296.3ZM306.955 293.304C306.955 294.06 306.82 294.727 306.549 295.306C306.288 295.885 305.914 296.337 305.429 296.664C304.944 296.981 304.37 297.14 303.707 297.14C303.147 297.14 302.638 296.991 302.181 296.692C301.724 296.393 301.364 295.978 301.103 295.446V297H300.193V286.948H301.173V291.176C301.416 290.635 301.756 290.219 302.195 289.93C302.643 289.631 303.147 289.482 303.707 289.482C304.37 289.482 304.939 289.645 305.415 289.972C305.9 290.289 306.278 290.737 306.549 291.316C306.82 291.885 306.955 292.548 306.955 293.304ZM305.961 293.304C305.961 292.371 305.737 291.643 305.289 291.12C304.85 290.597 304.272 290.336 303.553 290.336C303.096 290.336 302.685 290.453 302.321 290.686C301.957 290.919 301.672 291.255 301.467 291.694C301.262 292.133 301.159 292.66 301.159 293.276C301.159 293.892 301.257 294.429 301.453 294.886C301.658 295.334 301.943 295.679 302.307 295.922C302.671 296.165 303.086 296.286 303.553 296.286C304.272 296.286 304.85 296.025 305.289 295.502C305.737 294.979 305.961 294.247 305.961 293.304ZM315.295 293.304C315.295 294.06 315.159 294.727 314.889 295.306C314.627 295.885 314.254 296.337 313.769 296.664C313.283 296.981 312.709 297.14 312.047 297.14C311.487 297.14 310.978 296.991 310.521 296.692C310.063 296.393 309.704 295.978 309.443 295.446V297H308.533V286.948H309.513V291.176C309.755 290.635 310.096 290.219 310.535 289.93C310.983 289.631 311.487 289.482 312.047 289.482C312.709 289.482 313.279 289.645 313.755 289.972C314.24 290.289 314.618 290.737 314.889 291.316C315.159 291.885 315.295 292.548 315.295 293.304ZM314.301 293.304C314.301 292.371 314.077 291.643 313.629 291.12C313.19 290.597 312.611 290.336 311.893 290.336C311.435 290.336 311.025 290.453 310.661 290.686C310.297 290.919 310.012 291.255 309.807 291.694C309.601 292.133 309.499 292.66 309.499 293.276C309.499 293.892 309.597 294.429 309.793 294.886C309.998 295.334 310.283 295.679 310.647 295.922C311.011 296.165 311.426 296.286 311.893 296.286C312.611 296.286 313.19 296.025 313.629 295.502C314.077 294.979 314.301 294.247 314.301 293.304ZM322.338 289.622L318.558 299.702H317.508L318.586 296.902L315.66 289.622H316.71L319.09 295.726L321.344 289.622H322.338Z" fill="white"/>
<path d="M113.256 365.512L108.952 377H107.64L103.352 365.512H104.6L108.312 375.624L112.056 365.512H113.256ZM115.93 377H114.81V368.568H115.93V377ZM116.266 366.616C116.266 366.861 116.18 367.064 116.01 367.224C115.85 367.384 115.631 367.464 115.354 367.464C115.098 367.464 114.884 367.384 114.714 367.224C114.543 367.064 114.458 366.861 114.458 366.616C114.458 366.371 114.543 366.173 114.714 366.024C114.884 365.864 115.098 365.784 115.354 365.784C115.631 365.784 115.85 365.864 116.01 366.024C116.18 366.173 116.266 366.371 116.266 366.616ZM121.669 377.16C120.879 377.16 120.186 376.979 119.589 376.616C119.002 376.243 118.543 375.72 118.213 375.048C117.893 374.376 117.733 373.597 117.733 372.712C117.733 371.891 117.898 371.16 118.229 370.52C118.57 369.869 119.029 369.357 119.605 368.984C120.191 368.6 120.858 368.408 121.605 368.408C122.202 368.408 122.741 368.525 123.221 368.76C123.711 368.984 124.122 369.304 124.453 369.72C124.794 370.136 125.045 370.627 125.205 371.192C125.375 371.747 125.434 372.365 125.381 373.048H118.341V372.28H124.213C124.17 371.331 123.914 370.595 123.445 370.072C122.986 369.539 122.367 369.272 121.589 369.272C121.045 369.272 120.565 369.416 120.149 369.704C119.743 369.981 119.423 370.376 119.189 370.888C118.954 371.4 118.837 372.008 118.837 372.712C118.837 373.437 118.949 374.072 119.173 374.616C119.397 375.149 119.717 375.56 120.133 375.848C120.559 376.136 121.066 376.28 121.653 376.28C122.357 376.28 122.938 376.093 123.397 375.72C123.866 375.336 124.17 374.813 124.309 374.152H125.413C125.221 375.08 124.789 375.816 124.117 376.36C123.455 376.893 122.639 377.16 121.669 377.16ZM134.084 377L131.876 370.056L129.684 377H128.548L126.084 368.568H127.188L129.14 375.416L131.332 368.568H132.436L134.612 375.432L136.564 368.568H137.684L135.204 377H134.084ZM147.666 377V375.464C147.42 375.987 147.052 376.403 146.562 376.712C146.071 377.011 145.495 377.16 144.834 377.16C143.959 377.16 143.26 376.936 142.738 376.488C142.215 376.029 141.954 375.421 141.954 374.664C141.954 373.843 142.279 373.224 142.93 372.808C143.58 372.381 144.546 372.168 145.826 372.168C146.082 372.168 146.332 372.173 146.578 372.184C146.823 372.195 147.148 372.221 147.554 372.264V371.544C147.554 370.84 147.372 370.291 147.01 369.896C146.658 369.501 146.162 369.304 145.522 369.304C144.839 369.304 144.295 369.507 143.89 369.912C143.484 370.307 143.276 370.845 143.266 371.528H142.242C142.252 370.899 142.396 370.355 142.674 369.896C142.951 369.427 143.33 369.064 143.81 368.808C144.3 368.541 144.866 368.408 145.506 368.408C146.498 368.408 147.266 368.68 147.81 369.224C148.354 369.768 148.626 370.531 148.626 371.512V377H147.666ZM143.026 374.632C143.026 375.144 143.207 375.56 143.57 375.88C143.932 376.189 144.407 376.344 144.994 376.344C145.783 376.344 146.407 376.109 146.866 375.64C147.324 375.16 147.554 374.525 147.554 373.736V372.984C147.191 372.952 146.876 372.931 146.61 372.92C146.354 372.909 146.108 372.904 145.874 372.904C144.924 372.904 144.21 373.048 143.73 373.336C143.26 373.613 143.026 374.045 143.026 374.632ZM152.102 377H150.982V365.512H152.102V377ZM155.649 377H154.529V365.512H155.649V377ZM166.603 377V375.464C166.358 375.987 165.99 376.403 165.499 376.712C165.008 377.011 164.432 377.16 163.771 377.16C162.896 377.16 162.198 376.936 161.675 376.488C161.152 376.029 160.891 375.421 160.891 374.664C160.891 373.843 161.216 373.224 161.867 372.808C162.518 372.381 163.483 372.168 164.763 372.168C165.019 372.168 165.27 372.173 165.515 372.184C165.76 372.195 166.086 372.221 166.491 372.264V371.544C166.491 370.84 166.31 370.291 165.947 369.896C165.595 369.501 165.099 369.304 164.459 369.304C163.776 369.304 163.232 369.507 162.827 369.912C162.422 370.307 162.214 370.845 162.203 371.528H161.179C161.19 370.899 161.334 370.355 161.611 369.896C161.888 369.427 162.267 369.064 162.747 368.808C163.238 368.541 163.803 368.408 164.443 368.408C165.435 368.408 166.203 368.68 166.747 369.224C167.291 369.768 167.563 370.531 167.563 371.512V377H166.603ZM161.963 374.632C161.963 375.144 162.144 375.56 162.507 375.88C162.87 376.189 163.344 376.344 163.931 376.344C164.72 376.344 165.344 376.109 165.803 375.64C166.262 375.16 166.491 374.525 166.491 373.736V372.984C166.128 372.952 165.814 372.931 165.547 372.92C165.291 372.909 165.046 372.904 164.811 372.904C163.862 372.904 163.147 373.048 162.667 373.336C162.198 373.613 161.963 374.045 161.963 374.632ZM173.071 377.176C172.324 377.176 171.668 376.989 171.103 376.616C170.538 376.243 170.095 375.725 169.775 375.064C169.455 374.403 169.295 373.64 169.295 372.776C169.295 371.923 169.455 371.171 169.775 370.52C170.095 369.859 170.538 369.341 171.103 368.968C171.679 368.595 172.335 368.408 173.071 368.408C173.722 368.408 174.308 368.547 174.831 368.824C175.354 369.101 175.78 369.496 176.111 370.008C176.452 370.52 176.676 371.128 176.783 371.832H175.647C175.519 371.064 175.226 370.467 174.767 370.04C174.319 369.603 173.754 369.384 173.071 369.384C172.548 369.384 172.084 369.528 171.679 369.816C171.284 370.104 170.975 370.499 170.751 371C170.538 371.501 170.431 372.093 170.431 372.776C170.431 373.459 170.538 374.061 170.751 374.584C170.975 375.096 171.284 375.496 171.679 375.784C172.084 376.061 172.548 376.2 173.071 376.2C173.764 376.2 174.335 375.987 174.783 375.56C175.231 375.123 175.519 374.515 175.647 373.736H176.783C176.687 374.451 176.468 375.064 176.127 375.576C175.796 376.088 175.37 376.483 174.847 376.76C174.324 377.037 173.732 377.176 173.071 377.176ZM182.927 375.928V376.92C182.714 377.016 182.511 377.08 182.319 377.112C182.127 377.144 181.924 377.16 181.711 377.16C181.252 377.16 180.836 377.075 180.463 376.904C180.09 376.733 179.791 376.461 179.567 376.088C179.354 375.715 179.247 375.224 179.247 374.616V369.512H177.263V368.568H179.247V366.072H180.367V368.568H183.007V369.512H180.367V374.376C180.367 375.037 180.511 375.496 180.799 375.752C181.098 376.008 181.476 376.136 181.935 376.136C182.116 376.136 182.282 376.12 182.431 376.088C182.591 376.056 182.756 376.003 182.927 375.928ZM185.82 377H184.7V368.568H185.82V377ZM186.156 366.616C186.156 366.861 186.071 367.064 185.9 367.224C185.74 367.384 185.522 367.464 185.244 367.464C184.988 367.464 184.775 367.384 184.604 367.224C184.434 367.064 184.348 366.861 184.348 366.616C184.348 366.371 184.434 366.173 184.604 366.024C184.775 365.864 184.988 365.784 185.244 365.784C185.522 365.784 185.74 365.864 185.9 366.024C186.071 366.173 186.156 366.371 186.156 366.616ZM194.743 368.568L191.495 377H190.327L187.111 368.568H188.311L190.951 375.688L193.591 368.568H194.743ZM197.164 377H196.044V368.568H197.164V377ZM197.5 366.616C197.5 366.861 197.415 367.064 197.244 367.224C197.084 367.384 196.865 367.464 196.588 367.464C196.332 367.464 196.119 367.384 195.948 367.224C195.777 367.064 195.692 366.861 195.692 366.616C195.692 366.371 195.777 366.173 195.948 366.024C196.119 365.864 196.332 365.784 196.588 365.784C196.865 365.784 197.084 365.864 197.244 366.024C197.415 366.173 197.5 366.371 197.5 366.616ZM203.927 375.928V376.92C203.714 377.016 203.511 377.08 203.319 377.112C203.127 377.144 202.924 377.16 202.711 377.16C202.252 377.16 201.836 377.075 201.463 376.904C201.09 376.733 200.791 376.461 200.567 376.088C200.354 375.715 200.247 375.224 200.247 374.616V369.512H198.263V368.568H200.247V366.072H201.367V368.568H204.007V369.512H201.367V374.376C201.367 375.037 201.511 375.496 201.799 375.752C202.098 376.008 202.476 376.136 202.935 376.136C203.116 376.136 203.282 376.12 203.431 376.088C203.591 376.056 203.756 376.003 203.927 375.928ZM212.196 368.568L207.876 380.088H206.676L207.908 376.888L204.564 368.568H205.764L208.484 375.544L211.06 368.568H212.196Z" fill="white"/>
<path d="M270.318 373.318C270.494 373.142 270.494 372.858 270.318 372.682L267.454 369.818C267.279 369.642 266.994 369.642 266.818 369.818C266.642 369.994 266.642 370.279 266.818 370.454L269.364 373L266.818 375.546C266.642 375.721 266.642 376.006 266.818 376.182C266.994 376.358 267.279 376.358 267.454 376.182L270.318 373.318ZM254 373.45H270V372.55H254V373.45Z" fill="white"/>
<rect x="37.5" y="348.5" width="298" height="47" rx="9.5" stroke="white"/>
</svg>
