<svg width="374" height="433" viewBox="0 0 374 433" fill="none" xmlns="http://www.w3.org/2000/svg">
<rect width="374" height="433" rx="20" fill="#16161D"/>
<path d="M32.6 44L28.088 32.552V44H24.776V26.768H29.144L34.136 39.536L39.152 26.768H43.52V44H40.208V32.456L35.648 44H32.6ZM58.2976 31.184L52.0576 48.632H48.4336L50.2576 43.856L45.2176 31.184H48.8176L52.0336 39.968L54.9616 31.184H58.2976ZM72.6971 44.36C71.4971 44.36 70.3691 44.136 69.3131 43.688C68.2571 43.224 67.3371 42.584 66.5531 41.768C65.7691 40.936 65.1531 39.976 64.7051 38.888C64.2731 37.8 64.0571 36.624 64.0571 35.36C64.0571 34.096 64.2731 32.928 64.7051 31.856C65.1531 30.768 65.7691 29.816 66.5531 29C67.3371 28.184 68.2571 27.552 69.3131 27.104C70.3691 26.64 71.4971 26.408 72.6971 26.408C74.2171 26.408 75.5931 26.72 76.8251 27.344C78.0731 27.968 79.0971 28.84 79.8971 29.96C80.6971 31.08 81.1931 32.376 81.3851 33.848H77.5211C77.3931 33.016 77.0971 32.288 76.6331 31.664C76.1851 31.04 75.6251 30.552 74.9531 30.2C74.2971 29.848 73.5611 29.672 72.7451 29.672C71.9931 29.672 71.3131 29.808 70.7051 30.08C70.1131 30.352 69.5931 30.744 69.1451 31.256C68.7131 31.768 68.3771 32.376 68.1371 33.08C67.9131 33.768 67.8011 34.528 67.8011 35.36C67.8011 36.208 67.9131 36.984 68.1371 37.688C68.3771 38.376 68.7131 38.976 69.1451 39.488C69.5931 40 70.1131 40.4 70.7051 40.688C71.3131 40.96 71.9931 41.096 72.7451 41.096C73.5611 41.096 74.3051 40.92 74.9771 40.568C75.6491 40.2 76.2011 39.704 76.6331 39.08C77.0811 38.44 77.3771 37.712 77.5211 36.896H81.3851C81.1771 38.384 80.6731 39.688 79.8731 40.808C79.0731 41.928 78.0571 42.8 76.8251 43.424C75.5931 44.048 74.2171 44.36 72.6971 44.36ZM91.2763 44V42.416C90.8603 43.008 90.3323 43.464 89.6923 43.784C89.0523 44.088 88.2923 44.24 87.4123 44.24C86.0843 44.24 85.0123 43.88 84.1963 43.16C83.3803 42.44 82.9723 41.48 82.9723 40.28C82.9723 39.032 83.4683 38.08 84.4603 37.424C85.4523 36.768 86.8763 36.44 88.7323 36.44C89.1003 36.44 89.4523 36.456 89.7883 36.488C90.1243 36.504 90.4843 36.536 90.8683 36.584V35.816C90.8683 35.096 90.6763 34.536 90.2923 34.136C89.9083 33.736 89.3643 33.536 88.6603 33.536C87.9403 33.536 87.3723 33.736 86.9563 34.136C86.5403 34.536 86.3003 35.096 86.2363 35.816H83.2363C83.3003 34.824 83.5643 33.968 84.0283 33.248C84.5083 32.512 85.1403 31.944 85.9243 31.544C86.7243 31.144 87.6363 30.944 88.6603 30.944C90.3403 30.944 91.6443 31.384 92.5723 32.264C93.5163 33.144 93.9883 34.368 93.9883 35.936V44H91.2763ZM86.1163 40.184C86.1163 40.712 86.2923 41.136 86.6443 41.456C87.0123 41.776 87.5083 41.936 88.1323 41.936C88.9803 41.936 89.6443 41.72 90.1243 41.288C90.6203 40.84 90.8683 40.248 90.8683 39.512V38.6C90.4843 38.536 90.1403 38.496 89.8363 38.48C89.5323 38.448 89.2363 38.432 88.9483 38.432C88.0203 38.432 87.3163 38.576 86.8363 38.864C86.3563 39.152 86.1163 39.592 86.1163 40.184ZM100.199 37.784V44H96.863V31.184H99.935V33.656C100.415 32.84 101.111 32.2 102.023 31.736C102.935 31.272 103.903 31.04 104.927 31.04V34.496C103.999 34.432 103.175 34.48 102.455 34.64C101.751 34.784 101.199 35.112 100.799 35.624C100.399 36.12 100.199 36.84 100.199 37.784ZM105.726 37.592C105.726 36.328 105.958 35.192 106.422 34.184C106.902 33.176 107.566 32.384 108.414 31.808C109.278 31.232 110.278 30.944 111.414 30.944C112.182 30.944 112.886 31.104 113.526 31.424C114.166 31.744 114.726 32.216 115.206 32.84V26.768H118.518V44H115.47V42.152C114.958 42.808 114.358 43.32 113.67 43.688C112.998 44.056 112.246 44.24 111.414 44.24C110.278 44.24 109.278 43.952 108.414 43.376C107.566 42.784 106.902 41.984 106.422 40.976C105.958 39.968 105.726 38.84 105.726 37.592ZM109.158 37.592C109.158 38.792 109.454 39.704 110.046 40.328C110.638 40.952 111.342 41.264 112.158 41.264C112.718 41.264 113.222 41.12 113.67 40.832C114.134 40.544 114.502 40.128 114.774 39.584C115.046 39.024 115.182 38.344 115.182 37.544C115.182 36.744 115.038 36.072 114.75 35.528C114.478 34.984 114.11 34.576 113.646 34.304C113.198 34.032 112.702 33.896 112.158 33.896C111.342 33.896 110.638 34.208 110.046 34.832C109.454 35.44 109.158 36.36 109.158 37.592Z" fill="white"/>
<rect x="24" y="139" width="326" height="184" rx="20" fill="url(#paint0_linear_114_576)"/>
<mask id="mask0_114_576" style="mask-type:alpha" maskUnits="userSpaceOnUse" x="24" y="139" width="326" height="184">
<rect x="24" y="139" width="326" height="184" rx="20" fill="#F97316"/>
</mask>
<g mask="url(#mask0_114_576)">
<ellipse opacity="0.1" cx="49.3556" cy="352" rx="166.105" ry="113" fill="black"/>
<ellipse opacity="0.08" cx="324.644" cy="110" rx="166.105" ry="113" fill="black"/>
</g>
<path d="M278.582 293.296C278.582 296.026 279.744 298.154 282.11 298.154C284.49 298.154 285.624 296.026 285.624 293.296C285.624 291.882 285.33 290.748 284.728 289.894C284.14 289.04 283.272 288.606 282.11 288.606C280.948 288.606 280.08 289.04 279.478 289.908C278.876 290.762 278.582 291.896 278.582 293.296ZM284.084 293.31C284.084 295.494 283.468 296.796 282.11 296.796C280.752 296.796 280.122 295.494 280.122 293.31C280.122 291.084 280.78 289.964 282.11 289.964C283.426 289.964 284.084 291.084 284.084 293.31ZM294.146 291.812C294.188 289.992 292.634 288.578 290.884 288.606C289.12 288.606 287.608 289.992 287.608 291.798C287.608 293.548 289.05 294.892 290.632 294.892C290.786 294.892 290.912 294.878 291.038 294.85L288.812 298H290.576L292.872 294.738C293.194 294.29 293.432 293.94 293.586 293.688C293.74 293.422 293.88 293.142 293.978 292.834C294.09 292.512 294.146 292.176 294.146 291.812ZM292.676 291.798C292.676 292.316 292.508 292.75 292.158 293.1C291.808 293.45 291.388 293.632 290.884 293.632C290.366 293.632 289.932 293.464 289.582 293.114C289.232 292.764 289.064 292.316 289.064 291.798C289.064 291.28 289.232 290.846 289.582 290.496C289.932 290.146 290.366 289.964 290.884 289.964C291.388 289.964 291.808 290.146 292.158 290.496C292.508 290.846 292.676 291.28 292.676 291.798ZM293.645 299.694H295.283L302.605 287.08H300.967L293.645 299.694ZM305.98 296.712L307.604 294.99C308.248 294.304 308.738 293.716 309.06 293.198C309.396 292.68 309.564 292.106 309.564 291.476C309.564 289.852 308.262 288.606 306.498 288.606C304.608 288.606 303.39 290.048 303.39 291.56C303.39 291.84 303.418 292.106 303.488 292.358H304.986C304.944 292.078 304.916 291.84 304.916 291.644C304.916 290.692 305.546 289.964 306.484 289.964C307.422 289.964 308.024 290.65 308.024 291.588C308.024 292.372 307.576 293.044 306.554 294.122L303.264 297.664V298H309.886V296.712H305.98ZM318.272 295.018C318.272 293.156 316.774 292.134 315.122 292.134C314.702 292.134 314.31 292.176 313.946 292.26V290.09H317.754V288.76H312.49V293.408H314.618C315.976 293.408 316.746 293.996 316.746 295.046C316.746 296.11 315.934 296.796 314.828 296.796C313.834 296.796 313.148 296.278 312.588 295.424L311.552 296.166C312.182 297.356 313.344 298.154 314.87 298.154C316.704 298.154 318.272 296.88 318.272 295.018Z" fill="white"/>
<path opacity="0.9" d="M62.1876 295.018C62.1876 293.156 60.6896 292.134 59.0376 292.134C58.6176 292.134 58.2256 292.176 57.8616 292.26V290.09H61.6696V288.76H56.4056V293.408H58.5336C59.8916 293.408 60.6616 293.996 60.6616 295.046C60.6616 296.11 59.8496 296.796 58.7436 296.796C57.7496 296.796 57.0636 296.278 56.5036 295.424L55.4676 296.166C56.0976 297.356 57.2596 298.154 58.7856 298.154C60.6196 298.154 62.1876 296.88 62.1876 295.018ZM66.7279 296.712L68.3519 294.99C68.9959 294.304 69.4859 293.716 69.8079 293.198C70.1439 292.68 70.3119 292.106 70.3119 291.476C70.3119 289.852 69.0099 288.606 67.2459 288.606C65.3559 288.606 64.1379 290.048 64.1379 291.56C64.1379 291.84 64.1659 292.106 64.2359 292.358H65.7339C65.6919 292.078 65.6639 291.84 65.6639 291.644C65.6639 290.692 66.2939 289.964 67.2319 289.964C68.1699 289.964 68.7719 290.65 68.7719 291.588C68.7719 292.372 68.3239 293.044 67.3019 294.122L64.0119 297.664V298H70.6339V296.712H66.7279ZM79.3136 295.592C79.3136 294.416 78.5296 293.646 77.3116 293.198C78.3336 292.652 78.8796 291.938 78.8796 290.972C78.8796 290.23 78.5996 289.642 78.0536 289.236C77.5076 288.816 76.8076 288.606 75.9676 288.606C75.1136 288.606 74.4136 288.816 73.8536 289.236C73.3076 289.642 73.0276 290.23 73.0276 290.972C73.0276 291.966 73.5876 292.652 74.5956 293.198C73.3636 293.646 72.5936 294.416 72.5936 295.592C72.5936 297.146 73.9796 298.154 75.9676 298.154C77.9416 298.154 79.3136 297.146 79.3136 295.592ZM74.4416 291.028C74.4416 290.286 75.0716 289.824 75.9676 289.824C76.8496 289.824 77.4656 290.286 77.4656 291.028C77.4656 291.714 77.0036 292.078 75.9536 292.526C74.9036 292.064 74.4416 291.7 74.4416 291.028ZM77.8156 295.536C77.8156 296.376 77.1576 296.922 75.9676 296.922C74.7776 296.922 74.0916 296.376 74.0916 295.536C74.0916 294.71 74.7216 294.276 75.9536 293.842C77.1856 294.29 77.8156 294.696 77.8156 295.536ZM83.9017 296.712L85.5257 294.99C86.1697 294.304 86.6597 293.716 86.9817 293.198C87.3177 292.68 87.4857 292.106 87.4857 291.476C87.4857 289.852 86.1837 288.606 84.4197 288.606C82.5297 288.606 81.3117 290.048 81.3117 291.56C81.3117 291.84 81.3397 292.106 81.4097 292.358H82.9077C82.8657 292.078 82.8377 291.84 82.8377 291.644C82.8377 290.692 83.4677 289.964 84.4057 289.964C85.3437 289.964 85.9457 290.65 85.9457 291.588C85.9457 292.372 85.4977 293.044 84.4757 294.122L81.1857 297.664V298H87.8077V296.712H83.9017ZM100.393 295.032C100.393 294.234 100.155 293.59 99.6793 293.1C99.2033 292.61 98.6293 292.302 97.9433 292.19L100.183 289.166V288.76H94.4293V290.118H97.8733L95.7173 293.016V293.422H96.7393C98.0973 293.422 98.8673 293.996 98.8673 295.046C98.8673 296.096 98.0833 296.796 96.9773 296.796C96.0253 296.796 95.3673 296.278 94.8073 295.424L93.7713 296.152C94.3873 297.342 95.5213 298.154 97.0193 298.154C98.8393 298.154 100.393 296.908 100.393 295.032ZM109.195 295.116H107.935V292.274H106.451V295.116H103.693L106.311 288.76H104.785L101.831 295.984V296.39H106.451V298H107.935V296.39H109.195V295.116ZM117.08 295.018C117.08 293.156 115.582 292.134 113.93 292.134C113.51 292.134 113.118 292.176 112.754 292.26V290.09H116.562V288.76H111.298V293.408H113.426C114.784 293.408 115.554 293.996 115.554 295.046C115.554 296.11 114.742 296.796 113.636 296.796C112.642 296.796 111.956 296.278 111.396 295.424L110.36 296.166C110.99 297.356 112.152 298.154 113.678 298.154C115.512 298.154 117.08 296.88 117.08 295.018ZM125.428 294.962C125.428 293.212 124 291.868 122.39 291.868C122.236 291.868 122.11 291.882 121.984 291.91L124.21 288.76H122.46L120.15 292.022C119.828 292.484 119.59 292.834 119.436 293.086C119.282 293.338 119.156 293.618 119.044 293.94C118.946 294.248 118.89 294.584 118.89 294.948C118.848 296.768 120.402 298.182 122.152 298.154C123.916 298.154 125.428 296.768 125.428 294.962ZM123.958 294.962C123.958 295.48 123.776 295.928 123.426 296.278C123.076 296.628 122.656 296.796 122.152 296.796C121.634 296.796 121.214 296.628 120.864 296.278C120.514 295.928 120.346 295.48 120.346 294.962C120.346 294.444 120.514 294.01 120.864 293.66C121.214 293.31 121.634 293.128 122.152 293.128C122.656 293.128 123.076 293.31 123.426 293.66C123.776 294.01 123.958 294.444 123.958 294.962ZM131.468 288.76V290.09H135.808L131.734 298H133.344L137.81 289.166V288.76H131.468ZM145.652 295.592C145.652 294.416 144.868 293.646 143.65 293.198C144.672 292.652 145.218 291.938 145.218 290.972C145.218 290.23 144.938 289.642 144.392 289.236C143.846 288.816 143.146 288.606 142.306 288.606C141.452 288.606 140.752 288.816 140.192 289.236C139.646 289.642 139.366 290.23 139.366 290.972C139.366 291.966 139.926 292.652 140.934 293.198C139.702 293.646 138.932 294.416 138.932 295.592C138.932 297.146 140.318 298.154 142.306 298.154C144.28 298.154 145.652 297.146 145.652 295.592ZM140.78 291.028C140.78 290.286 141.41 289.824 142.306 289.824C143.188 289.824 143.804 290.286 143.804 291.028C143.804 291.714 143.342 292.078 142.292 292.526C141.242 292.064 140.78 291.7 140.78 291.028ZM144.154 295.536C144.154 296.376 143.496 296.922 142.306 296.922C141.116 296.922 140.43 296.376 140.43 295.536C140.43 294.71 141.06 294.276 142.292 293.842C143.524 294.29 144.154 294.696 144.154 295.536ZM154.048 291.812C154.09 289.992 152.536 288.578 150.786 288.606C149.022 288.606 147.51 289.992 147.51 291.798C147.51 293.548 148.952 294.892 150.534 294.892C150.688 294.892 150.814 294.878 150.94 294.85L148.714 298H150.478L152.774 294.738C153.096 294.29 153.334 293.94 153.488 293.688C153.642 293.422 153.782 293.142 153.88 292.834C153.992 292.512 154.048 292.176 154.048 291.812ZM152.578 291.798C152.578 292.316 152.41 292.75 152.06 293.1C151.71 293.45 151.29 293.632 150.786 293.632C150.268 293.632 149.834 293.464 149.484 293.114C149.134 292.764 148.966 292.316 148.966 291.798C148.966 291.28 149.134 290.846 149.484 290.496C149.834 290.146 150.268 289.964 150.786 289.964C151.29 289.964 151.71 290.146 152.06 290.496C152.41 290.846 152.578 291.28 152.578 291.798ZM156.013 293.296C156.013 296.026 157.175 298.154 159.541 298.154C161.921 298.154 163.055 296.026 163.055 293.296C163.055 291.882 162.761 290.748 162.159 289.894C161.571 289.04 160.703 288.606 159.541 288.606C158.379 288.606 157.511 289.04 156.909 289.908C156.307 290.762 156.013 291.896 156.013 293.296ZM161.515 293.31C161.515 295.494 160.899 296.796 159.541 296.796C158.183 296.796 157.553 295.494 157.553 293.31C157.553 291.084 158.211 289.964 159.541 289.964C160.857 289.964 161.515 291.084 161.515 293.31ZM172.375 288.76L169.169 289.81L169.533 291.112L171.409 290.51V298H172.893V288.76H172.375ZM178.148 296.712L179.772 294.99C180.416 294.304 180.906 293.716 181.228 293.198C181.564 292.68 181.732 292.106 181.732 291.476C181.732 289.852 180.43 288.606 178.666 288.606C176.776 288.606 175.558 290.048 175.558 291.56C175.558 291.84 175.586 292.106 175.656 292.358H177.154C177.112 292.078 177.084 291.84 177.084 291.644C177.084 290.692 177.714 289.964 178.652 289.964C179.59 289.964 180.192 290.65 180.192 291.588C180.192 292.372 179.744 293.044 178.722 294.122L175.432 297.664V298H182.054V296.712H178.148ZM190.734 295.592C190.734 294.416 189.95 293.646 188.732 293.198C189.754 292.652 190.3 291.938 190.3 290.972C190.3 290.23 190.02 289.642 189.474 289.236C188.928 288.816 188.228 288.606 187.388 288.606C186.534 288.606 185.834 288.816 185.274 289.236C184.728 289.642 184.448 290.23 184.448 290.972C184.448 291.966 185.008 292.652 186.016 293.198C184.784 293.646 184.014 294.416 184.014 295.592C184.014 297.146 185.4 298.154 187.388 298.154C189.362 298.154 190.734 297.146 190.734 295.592ZM185.862 291.028C185.862 290.286 186.492 289.824 187.388 289.824C188.27 289.824 188.886 290.286 188.886 291.028C188.886 291.714 188.424 292.078 187.374 292.526C186.324 292.064 185.862 291.7 185.862 291.028ZM189.236 295.536C189.236 296.376 188.578 296.922 187.388 296.922C186.198 296.922 185.512 296.376 185.512 295.536C185.512 294.71 186.142 294.276 187.374 293.842C188.606 294.29 189.236 294.696 189.236 295.536ZM199.13 291.812C199.172 289.992 197.618 288.578 195.868 288.606C194.104 288.606 192.592 289.992 192.592 291.798C192.592 293.548 194.034 294.892 195.616 294.892C195.77 294.892 195.896 294.878 196.022 294.85L193.796 298H195.56L197.856 294.738C198.178 294.29 198.416 293.94 198.57 293.688C198.724 293.422 198.864 293.142 198.962 292.834C199.074 292.512 199.13 292.176 199.13 291.812ZM197.66 291.798C197.66 292.316 197.492 292.75 197.142 293.1C196.792 293.45 196.372 293.632 195.868 293.632C195.35 293.632 194.916 293.464 194.566 293.114C194.216 292.764 194.048 292.316 194.048 291.798C194.048 291.28 194.216 290.846 194.566 290.496C194.916 290.146 195.35 289.964 195.868 289.964C196.372 289.964 196.792 290.146 197.142 290.496C197.492 290.846 197.66 291.28 197.66 291.798Z" fill="white"/>
<path d="M289.371 166.974H301.963V188.837H289.371V166.974Z" fill="#FF5F00"/>
<path d="M280.856 199.841V197.523C280.856 196.635 280.296 196.056 279.337 196.056C278.857 196.056 278.338 196.21 277.978 196.712C277.698 196.287 277.298 196.056 276.699 196.056C276.299 196.056 275.899 196.171 275.579 196.596V196.133H274.74V199.841H275.579V197.794C275.579 197.137 275.939 196.828 276.499 196.828C277.058 196.828 277.338 197.176 277.338 197.794V199.841H278.178V197.794C278.178 197.137 278.577 196.828 279.097 196.828C279.657 196.828 279.937 197.176 279.937 197.794V199.841H280.856V199.841ZM293.288 196.133H291.929V195.013H291.09V196.133H290.33V196.867H291.09V198.566C291.09 199.416 291.449 199.918 292.409 199.918C292.769 199.918 293.168 199.802 293.448 199.648L293.208 198.953C292.969 199.107 292.689 199.146 292.489 199.146C292.089 199.146 291.929 198.914 291.929 198.528V196.867H293.288V196.133V196.133ZM300.404 196.055C299.924 196.055 299.605 196.287 299.405 196.596V196.133H298.565V199.841H299.405V197.755C299.405 197.137 299.684 196.79 300.204 196.79C300.364 196.79 300.564 196.828 300.724 196.867L300.964 196.094C300.804 196.056 300.564 196.056 300.404 196.056V196.055ZM289.651 196.442C289.251 196.171 288.691 196.056 288.092 196.056C287.132 196.056 286.493 196.519 286.493 197.253C286.493 197.871 286.972 198.219 287.812 198.335L288.212 198.373C288.651 198.45 288.891 198.566 288.891 198.759C288.891 199.03 288.571 199.223 288.012 199.223C287.452 199.223 287.012 199.03 286.732 198.837L286.333 199.455C286.772 199.764 287.372 199.918 287.972 199.918C289.091 199.918 289.731 199.416 289.731 198.721C289.731 198.064 289.211 197.716 288.411 197.601L288.012 197.562C287.652 197.523 287.372 197.446 287.372 197.214C287.372 196.944 287.652 196.79 288.092 196.79C288.571 196.79 289.051 196.983 289.291 197.098L289.651 196.442V196.442ZM311.957 196.056C311.477 196.056 311.157 196.287 310.957 196.596V196.133H310.118V199.841H310.957V197.755C310.957 197.137 311.237 196.79 311.757 196.79C311.917 196.79 312.117 196.828 312.277 196.867L312.516 196.094C312.357 196.056 312.117 196.056 311.957 196.056V196.056ZM301.243 197.987C301.243 199.107 302.043 199.918 303.282 199.918C303.842 199.918 304.242 199.802 304.641 199.493L304.242 198.837C303.922 199.068 303.602 199.184 303.242 199.184C302.563 199.184 302.083 198.721 302.083 197.987C302.083 197.292 302.563 196.828 303.242 196.79C303.602 196.79 303.922 196.905 304.242 197.137L304.641 196.481C304.242 196.171 303.842 196.056 303.282 196.056C302.043 196.056 301.243 196.867 301.243 197.987ZM308.999 197.987V196.133H308.159V196.596C307.879 196.249 307.48 196.056 306.96 196.056C305.881 196.056 305.041 196.867 305.041 197.987C305.041 199.107 305.881 199.918 306.96 199.918C307.519 199.918 307.919 199.725 308.159 199.377V199.841H308.999V197.987V197.987ZM305.92 197.987C305.92 197.33 306.36 196.79 307.08 196.79C307.759 196.79 308.239 197.292 308.239 197.987C308.239 198.644 307.759 199.184 307.08 199.184C306.36 199.146 305.92 198.644 305.92 197.987V197.987ZM295.887 196.056C294.767 196.056 293.968 196.828 293.968 197.987C293.968 199.146 294.767 199.918 295.927 199.918C296.486 199.918 297.046 199.764 297.486 199.416L297.086 198.837C296.766 199.068 296.366 199.223 295.967 199.223C295.447 199.223 294.927 198.991 294.807 198.334H297.646V198.026C297.686 196.828 296.966 196.056 295.887 196.056H295.887ZM295.887 196.751C296.406 196.751 296.766 197.06 296.846 197.639H294.847C294.927 197.137 295.287 196.751 295.887 196.751ZM316.714 197.987V194.665H315.874V196.596C315.594 196.249 315.195 196.056 314.675 196.056C313.596 196.056 312.756 196.867 312.756 197.987C312.756 199.107 313.596 199.918 314.675 199.918C315.235 199.918 315.635 199.725 315.874 199.377V199.841H316.714V197.987V197.987ZM313.636 197.987C313.636 197.33 314.075 196.79 314.795 196.79C315.475 196.79 315.954 197.292 315.954 197.987C315.954 198.644 315.475 199.184 314.795 199.184C314.075 199.146 313.636 198.644 313.636 197.987V197.987ZM285.573 197.987V196.133H284.734V196.596C284.454 196.249 284.054 196.056 283.534 196.056C282.455 196.056 281.616 196.867 281.616 197.987C281.616 199.107 282.455 199.918 283.534 199.918C284.094 199.918 284.494 199.725 284.734 199.377V199.841H285.573V197.987V197.987ZM282.455 197.987C282.455 197.33 282.895 196.79 283.614 196.79C284.294 196.79 284.774 197.292 284.774 197.987C284.774 198.644 284.294 199.184 283.614 199.184C282.895 199.146 282.455 198.644 282.455 197.987V197.987Z" fill="white"/>
<path d="M290.17 177.906C290.17 173.464 292.329 169.524 295.646 166.974C293.208 165.12 290.13 164 286.772 164C278.817 164 272.381 170.219 272.381 177.906C272.381 185.592 278.817 191.811 286.772 191.811C290.13 191.811 293.208 190.691 295.646 188.837C292.329 186.326 290.17 182.347 290.17 177.906V177.906Z" fill="#EB001B"/>
<path d="M318.952 177.906C318.952 185.592 312.516 191.811 304.561 191.811C301.203 191.811 298.125 190.691 295.686 188.837C299.044 186.287 301.163 182.347 301.163 177.906C301.163 173.464 299.004 169.524 295.686 166.974C298.125 165.12 301.203 164 304.561 164C312.516 164 318.952 170.257 318.952 177.906H318.952Z" fill="#F79E1B"/>
<path d="M63.8956 216.328C66.6676 215.908 68.5716 214.172 68.5716 211.596C68.5716 209.356 67.1156 207.844 64.3996 206.808L62.3276 206.024C60.7876 205.352 60.0876 204.82 60.0876 203.728C60.0876 202.468 61.2356 201.852 62.6636 201.852C64.1196 201.852 65.1556 202.496 66.1356 203.924L68.1516 202.412C67.1716 200.676 65.7436 199.64 63.8956 199.304V196.028H61.1796V199.36C58.7996 199.836 57.1476 201.488 57.1476 203.756C57.1476 205.8 58.4916 207.368 61.2076 208.432L63.1396 209.188C64.8476 209.944 65.6316 210.532 65.6316 211.652C65.6316 212.996 64.3996 213.808 62.6916 213.808C60.8156 213.808 59.3036 212.856 58.0996 210.98L56.0556 212.492C57.1756 214.508 58.9396 215.852 61.1796 216.272V219.66H63.8956V216.328ZM84.3667 211.036C84.3667 207.312 81.3707 205.268 78.0667 205.268C77.2267 205.268 76.4427 205.352 75.7147 205.52V201.18H83.3307V198.52H72.8027V207.816H77.0587C79.7747 207.816 81.3147 208.992 81.3147 211.092C81.3147 213.22 79.6907 214.592 77.4787 214.592C75.4907 214.592 74.1187 213.556 72.9987 211.848L70.9267 213.332C72.1867 215.712 74.5107 217.308 77.5627 217.308C81.2307 217.308 84.3667 214.76 84.3667 211.036ZM87.8833 221.984H90.2633L91.5793 214.032H88.1633L87.8833 221.984ZM94.3095 198.52V201.18H102.99L94.8415 217H98.0615L106.994 199.332V198.52H94.3095ZM121.937 211.036C121.937 207.312 118.941 205.268 115.637 205.268C114.797 205.268 114.013 205.352 113.285 205.52V201.18H120.901V198.52H110.373V207.816H114.629C117.345 207.816 118.885 208.992 118.885 211.092C118.885 213.22 117.261 214.592 115.049 214.592C113.061 214.592 111.689 213.556 110.569 211.848L108.497 213.332C109.757 215.712 112.081 217.308 115.133 217.308C118.801 217.308 121.937 214.76 121.937 211.036ZM125.006 207.592C125.006 213.052 127.33 217.308 132.062 217.308C136.822 217.308 139.09 213.052 139.09 207.592C139.09 204.764 138.502 202.496 137.298 200.788C136.122 199.08 134.386 198.212 132.062 198.212C129.738 198.212 128.002 199.08 126.798 200.816C125.594 202.524 125.006 204.792 125.006 207.592ZM136.01 207.62C136.01 211.988 134.778 214.592 132.062 214.592C129.346 214.592 128.086 211.988 128.086 207.62C128.086 203.168 129.402 200.928 132.062 200.928C134.694 200.928 136.01 203.168 136.01 207.62ZM142.68 221.984H145.06L146.376 214.032H142.96L142.68 221.984ZM155.092 214.424L158.34 210.98C159.628 209.608 160.608 208.432 161.252 207.396C161.924 206.36 162.26 205.212 162.26 203.952C162.26 200.704 159.656 198.212 156.128 198.212C152.348 198.212 149.912 201.096 149.912 204.12C149.912 204.68 149.968 205.212 150.108 205.716H153.104C153.02 205.156 152.964 204.68 152.964 204.288C152.964 202.384 154.224 200.928 156.1 200.928C157.976 200.928 159.18 202.3 159.18 204.176C159.18 205.744 158.284 207.088 156.24 209.244L149.66 216.328V217H162.904V214.424H155.092ZM166.103 207.592C166.103 213.052 168.427 217.308 173.159 217.308C177.919 217.308 180.187 213.052 180.187 207.592C180.187 204.764 179.599 202.496 178.395 200.788C177.219 199.08 175.483 198.212 173.159 198.212C170.835 198.212 169.099 199.08 167.895 200.816C166.691 202.524 166.103 204.792 166.103 207.592ZM177.107 207.62C177.107 211.988 175.875 214.592 173.159 214.592C170.443 214.592 169.183 211.988 169.183 207.62C169.183 203.168 170.499 200.928 173.159 200.928C175.791 200.928 177.107 203.168 177.107 207.62Z" fill="white"/>
<path opacity="0.54" d="M55.6496 177.38C55.5936 180.026 57.8756 182.196 60.5076 182.154C62.2296 182.154 63.6856 181.328 64.4696 180.026L63.3496 179.2C62.6916 180.222 61.7396 180.796 60.5216 180.796C58.6316 180.796 57.1896 179.34 57.1896 177.38C57.1896 175.42 58.6316 173.964 60.5216 173.964C61.7396 173.964 62.6916 174.538 63.3496 175.56L64.4696 174.734C63.6716 173.432 62.2016 172.606 60.5076 172.606C57.8756 172.564 55.5936 174.734 55.6496 177.38ZM66.0768 179.116C66.0768 180.964 67.3648 182.154 69.0868 182.154C70.7668 182.154 72.0688 180.964 72.0688 179.116V175.126H70.5988V179.228C70.5988 180.18 69.9408 180.796 69.0868 180.796C68.1908 180.796 67.5328 180.18 67.5328 179.228V175.126H66.0768V179.116ZM78.0651 175.126C77.8971 175.084 77.7151 175.056 77.5051 175.056C76.7211 175.056 75.9931 175.406 75.5031 176.022V175.126H74.1311V182H75.6011V178.332C75.6011 177.114 76.4551 176.428 77.6171 176.428H78.0651V175.126ZM83.3151 175.126C83.1471 175.084 82.9651 175.056 82.7551 175.056C81.9711 175.056 81.2431 175.406 80.7531 176.022V175.126H79.3811V182H80.8511V178.332C80.8511 177.114 81.7051 176.428 82.8671 176.428H83.3151V175.126ZM90.6824 179.046C90.7524 178.724 90.7944 178.416 90.7944 178.122C90.7944 176.33 89.4364 174.972 87.6164 174.972C85.6704 174.93 84.0184 176.596 84.0604 178.57C84.0604 180.6 85.6564 182.154 87.7564 182.154C88.8064 182.154 89.7164 181.79 90.5004 181.048L89.8004 180.04C89.1844 180.586 88.5124 180.852 87.7984 180.852C86.6224 180.852 85.7404 180.166 85.5584 179.046H90.6824ZM85.5864 177.898C85.8104 176.876 86.5944 176.218 87.5604 176.218C88.5264 176.218 89.3104 176.848 89.3244 177.898H85.5864ZM98.4848 177.702C98.4848 176.064 97.5188 174.972 95.9088 174.972C95.0548 174.972 94.3688 175.252 93.8508 175.798V175.126H92.4788V182H93.9488V177.898C93.9488 176.96 94.6068 176.302 95.5168 176.302C96.4128 176.302 97.0148 176.946 97.0148 177.898V182H98.4848V177.702ZM104.62 180.754C104.214 180.796 103.92 180.824 103.71 180.824C102.814 180.824 102.352 180.516 102.352 179.634V176.4H104.396V175.126H102.352V173.32H100.868V175.126H99.7475V176.4H100.868V179.76C100.868 181.37 101.82 182.154 103.402 182.154C103.752 182.154 104.158 182.098 104.62 182V180.754ZM117.089 179.312C117.089 178.178 116.445 177.31 115.367 176.96C115.871 176.526 116.137 175.938 116.137 175.224C116.137 173.796 115.031 172.76 113.365 172.76H110.131V182H114.093C115.899 182 117.089 180.866 117.089 179.312ZM113.225 174.062C114.135 174.062 114.653 174.524 114.653 175.294C114.653 176.064 114.135 176.554 113.225 176.554H111.587V174.062H113.225ZM115.591 179.27C115.591 180.152 114.989 180.698 113.967 180.698H111.587V177.828H113.967C114.989 177.828 115.591 178.388 115.591 179.27ZM124.148 177.842C124.148 175.994 123.028 174.972 121.334 174.972C120.144 174.972 119.122 175.448 118.436 176.442L119.29 177.31C119.864 176.624 120.424 176.288 121.194 176.288C122.132 176.288 122.664 176.806 122.664 177.758V178.206H120.718C119.164 178.206 118.184 178.976 118.184 180.166C118.184 181.356 119.136 182.154 120.578 182.154C121.516 182.154 122.272 181.832 122.776 181.23V182H124.148V177.842ZM122.664 179.396C122.664 180.334 121.88 181.02 120.886 181.02C120.172 181.02 119.682 180.684 119.682 180.11C119.682 179.55 120.116 179.27 120.9 179.27H122.664V179.396ZM126.194 182H127.664V171.5H126.194V182ZM135.249 177.842C135.249 175.994 134.129 174.972 132.435 174.972C131.245 174.972 130.223 175.448 129.537 176.442L130.391 177.31C130.965 176.624 131.525 176.288 132.295 176.288C133.233 176.288 133.765 176.806 133.765 177.758V178.206H131.819C130.265 178.206 129.285 178.976 129.285 180.166C129.285 181.356 130.237 182.154 131.679 182.154C132.617 182.154 133.373 181.832 133.877 181.23V182H135.249V177.842ZM133.765 179.396C133.765 180.334 132.981 181.02 131.987 181.02C131.273 181.02 130.783 180.684 130.783 180.11C130.783 179.55 131.217 179.27 132.001 179.27H133.765V179.396ZM143.301 177.702C143.301 176.064 142.335 174.972 140.725 174.972C139.871 174.972 139.185 175.252 138.667 175.798V175.126H137.295V182H138.765V177.898C138.765 176.96 139.423 176.302 140.333 176.302C141.229 176.302 141.831 176.946 141.831 177.898V182H143.301V177.702ZM144.914 178.556C144.914 180.558 146.524 182.154 148.554 182.154C149.8 182.154 150.836 181.552 151.452 180.558L150.416 179.76C149.912 180.446 149.296 180.796 148.568 180.796C147.336 180.796 146.412 179.816 146.412 178.556C146.412 177.31 147.336 176.33 148.568 176.33C149.31 176.33 149.926 176.68 150.416 177.38L151.452 176.568C150.85 175.574 149.828 174.972 148.554 174.972C146.58 174.944 144.872 176.582 144.914 178.556ZM159.124 179.046C159.194 178.724 159.236 178.416 159.236 178.122C159.236 176.33 157.878 174.972 156.058 174.972C154.112 174.93 152.46 176.596 152.502 178.57C152.502 180.6 154.098 182.154 156.198 182.154C157.248 182.154 158.158 181.79 158.942 181.048L158.242 180.04C157.626 180.586 156.954 180.852 156.24 180.852C155.064 180.852 154.182 180.166 154 179.046H159.124ZM154.028 177.898C154.252 176.876 155.036 176.218 156.002 176.218C156.968 176.218 157.752 176.848 157.766 177.898H154.028Z" fill="white"/>
<rect x="24" y="359" width="156" height="48" rx="10" fill="#F97316"/>
<rect x="194.5" y="359.5" width="155" height="47" rx="9.5" stroke="white"/>
<path d="M59.6 388L56.968 381.322V388H55.036V377.948H57.584L60.496 385.396L63.422 377.948H65.97V388H64.038V381.266L61.378 388H59.6ZM72.3083 388V387.076C72.0656 387.421 71.7576 387.687 71.3843 387.874C71.0109 388.051 70.5676 388.14 70.0543 388.14C69.2796 388.14 68.6543 387.93 68.1783 387.51C67.7023 387.09 67.4643 386.53 67.4643 385.83C67.4643 385.102 67.7536 384.547 68.3323 384.164C68.9109 383.781 69.7416 383.59 70.8243 383.59C71.0389 383.59 71.2443 383.599 71.4403 383.618C71.6363 383.627 71.8463 383.646 72.0703 383.674V383.226C72.0703 382.806 71.9583 382.479 71.7343 382.246C71.5103 382.013 71.1929 381.896 70.7823 381.896C70.3623 381.896 70.0309 382.013 69.7883 382.246C69.5456 382.479 69.4056 382.806 69.3683 383.226H67.6183C67.6556 382.647 67.8096 382.148 68.0803 381.728C68.3603 381.299 68.7289 380.967 69.1863 380.734C69.6529 380.501 70.1849 380.384 70.7823 380.384C71.7623 380.384 72.5229 380.641 73.0643 381.154C73.6149 381.667 73.8903 382.381 73.8903 383.296V388H72.3083ZM69.2983 385.774C69.2983 386.082 69.4009 386.329 69.6063 386.516C69.8209 386.703 70.1103 386.796 70.4743 386.796C70.9689 386.796 71.3563 386.67 71.6363 386.418C71.9256 386.157 72.0703 385.811 72.0703 385.382V384.85C71.8463 384.813 71.6456 384.789 71.4683 384.78C71.2909 384.761 71.1183 384.752 70.9503 384.752C70.4089 384.752 69.9983 384.836 69.7183 385.004C69.4383 385.172 69.2983 385.429 69.2983 385.774ZM77.5132 383.926V388H75.5672V380.524H77.3592V381.588C77.6392 381.215 77.9659 380.921 78.3392 380.706C78.7219 380.491 79.1606 380.384 79.6552 380.384C80.4112 380.384 81.0226 380.627 81.4892 381.112C81.9559 381.588 82.1892 382.274 82.1892 383.17V388H80.2572V383.828C80.2572 383.268 80.1452 382.843 79.9212 382.554C79.7066 382.255 79.3799 382.106 78.9412 382.106C78.6799 382.106 78.4372 382.176 78.2132 382.316C77.9986 382.447 77.8259 382.647 77.6952 382.918C77.5739 383.179 77.5132 383.515 77.5132 383.926ZM88.318 388V387.076C88.0754 387.421 87.7674 387.687 87.394 387.874C87.0207 388.051 86.5774 388.14 86.064 388.14C85.2894 388.14 84.664 387.93 84.188 387.51C83.712 387.09 83.474 386.53 83.474 385.83C83.474 385.102 83.7634 384.547 84.342 384.164C84.9207 383.781 85.7514 383.59 86.834 383.59C87.0487 383.59 87.254 383.599 87.45 383.618C87.646 383.627 87.856 383.646 88.08 383.674V383.226C88.08 382.806 87.968 382.479 87.744 382.246C87.52 382.013 87.2027 381.896 86.792 381.896C86.372 381.896 86.0407 382.013 85.798 382.246C85.5554 382.479 85.4154 382.806 85.378 383.226H83.628C83.6654 382.647 83.8194 382.148 84.09 381.728C84.37 381.299 84.7387 380.967 85.196 380.734C85.6627 380.501 86.1947 380.384 86.792 380.384C87.772 380.384 88.5327 380.641 89.074 381.154C89.6247 381.667 89.9 382.381 89.9 383.296V388H88.318ZM85.308 385.774C85.308 386.082 85.4107 386.329 85.616 386.516C85.8307 386.703 86.12 386.796 86.484 386.796C86.9787 386.796 87.366 386.67 87.646 386.418C87.9354 386.157 88.08 385.811 88.08 385.382V384.85C87.856 384.813 87.6554 384.789 87.478 384.78C87.3007 384.761 87.128 384.752 86.96 384.752C86.4187 384.752 86.008 384.836 85.728 385.004C85.448 385.172 85.308 385.429 85.308 385.774ZM94.755 390.842C94.0923 390.842 93.5043 390.725 92.991 390.492C92.4777 390.268 92.0763 389.941 91.787 389.512C91.4977 389.092 91.339 388.597 91.311 388.028H93.187C93.2337 388.457 93.3877 388.779 93.649 388.994C93.9103 389.218 94.2743 389.33 94.741 389.33C95.2823 389.33 95.6883 389.19 95.959 388.91C96.239 388.63 96.379 388.219 96.379 387.678V386.586C96.1737 386.941 95.889 387.221 95.525 387.426C95.161 387.622 94.7503 387.72 94.293 387.72C93.6863 387.72 93.1403 387.561 92.655 387.244C92.1697 386.927 91.787 386.493 91.507 385.942C91.227 385.382 91.087 384.752 91.087 384.052C91.087 383.324 91.2177 382.685 91.479 382.134C91.7497 381.583 92.1183 381.154 92.585 380.846C93.061 380.538 93.607 380.384 94.223 380.384C94.727 380.384 95.1703 380.482 95.553 380.678C95.9357 380.865 96.2623 381.154 96.533 381.546V380.524H98.311V387.65C98.311 388.649 97.9937 389.428 97.359 389.988C96.7337 390.557 95.8657 390.842 94.755 390.842ZM93.033 384.052C93.033 384.659 93.1823 385.144 93.481 385.508C93.7797 385.863 94.1763 386.04 94.671 386.04C95.0163 386.04 95.315 385.961 95.567 385.802C95.819 385.634 96.015 385.401 96.155 385.102C96.295 384.803 96.365 384.458 96.365 384.066C96.365 383.459 96.211 382.974 95.903 382.61C95.595 382.246 95.1843 382.064 94.671 382.064C94.1763 382.064 93.7797 382.246 93.481 382.61C93.1823 382.965 93.033 383.445 93.033 384.052ZM103.315 388.126C102.569 388.126 101.911 387.967 101.341 387.65C100.781 387.323 100.347 386.866 100.039 386.278C99.7312 385.69 99.5772 385.009 99.5772 384.234C99.5772 383.487 99.7359 382.825 100.053 382.246C100.371 381.667 100.809 381.215 101.369 380.888C101.929 380.552 102.569 380.384 103.287 380.384C103.875 380.384 104.407 380.496 104.883 380.72C105.369 380.935 105.775 381.243 106.101 381.644C106.428 382.045 106.661 382.512 106.801 383.044C106.941 383.567 106.965 384.131 106.871 384.738H100.725V383.506H104.813C104.795 382.983 104.641 382.573 104.351 382.274C104.071 381.966 103.703 381.812 103.245 381.812C102.881 381.812 102.573 381.905 102.321 382.092C102.069 382.279 101.873 382.554 101.733 382.918C101.603 383.273 101.537 383.711 101.537 384.234C101.537 384.747 101.603 385.181 101.733 385.536C101.864 385.891 102.06 386.161 102.321 386.348C102.583 386.535 102.9 386.628 103.273 386.628C103.703 386.628 104.057 386.525 104.337 386.32C104.617 386.115 104.813 385.83 104.925 385.466H106.857C106.643 386.306 106.227 386.959 105.611 387.426C104.995 387.893 104.23 388.126 103.315 388.126ZM115.72 388.21C115.02 388.21 114.362 388.079 113.746 387.818C113.13 387.547 112.594 387.174 112.136 386.698C111.679 386.213 111.32 385.653 111.058 385.018C110.806 384.383 110.68 383.697 110.68 382.96C110.68 382.223 110.806 381.541 111.058 380.916C111.32 380.281 111.679 379.726 112.136 379.25C112.594 378.774 113.13 378.405 113.746 378.144C114.362 377.873 115.02 377.738 115.72 377.738C116.607 377.738 117.41 377.92 118.128 378.284C118.856 378.648 119.454 379.157 119.92 379.81C120.387 380.463 120.676 381.219 120.788 382.078H118.534C118.46 381.593 118.287 381.168 118.016 380.804C117.755 380.44 117.428 380.155 117.036 379.95C116.654 379.745 116.224 379.642 115.748 379.642C115.31 379.642 114.913 379.721 114.558 379.88C114.213 380.039 113.91 380.267 113.648 380.566C113.396 380.865 113.2 381.219 113.06 381.63C112.93 382.031 112.864 382.475 112.864 382.96C112.864 383.455 112.93 383.907 113.06 384.318C113.2 384.719 113.396 385.069 113.648 385.368C113.91 385.667 114.213 385.9 114.558 386.068C114.913 386.227 115.31 386.306 115.748 386.306C116.224 386.306 116.658 386.203 117.05 385.998C117.442 385.783 117.764 385.494 118.016 385.13C118.278 384.757 118.45 384.332 118.534 383.856H120.788C120.667 384.724 120.373 385.485 119.906 386.138C119.44 386.791 118.847 387.3 118.128 387.664C117.41 388.028 116.607 388.21 115.72 388.21ZM126.558 388V387.076C126.316 387.421 126.008 387.687 125.634 387.874C125.261 388.051 124.818 388.14 124.304 388.14C123.53 388.14 122.904 387.93 122.428 387.51C121.952 387.09 121.714 386.53 121.714 385.83C121.714 385.102 122.004 384.547 122.582 384.164C123.161 383.781 123.992 383.59 125.074 383.59C125.289 383.59 125.494 383.599 125.69 383.618C125.886 383.627 126.096 383.646 126.32 383.674V383.226C126.32 382.806 126.208 382.479 125.984 382.246C125.76 382.013 125.443 381.896 125.032 381.896C124.612 381.896 124.281 382.013 124.038 382.246C123.796 382.479 123.656 382.806 123.618 383.226H121.868C121.906 382.647 122.06 382.148 122.33 381.728C122.61 381.299 122.979 380.967 123.436 380.734C123.903 380.501 124.435 380.384 125.032 380.384C126.012 380.384 126.773 380.641 127.314 381.154C127.865 381.667 128.14 382.381 128.14 383.296V388H126.558ZM123.548 385.774C123.548 386.082 123.651 386.329 123.856 386.516C124.071 386.703 124.36 386.796 124.724 386.796C125.219 386.796 125.606 386.67 125.886 386.418C126.176 386.157 126.32 385.811 126.32 385.382V384.85C126.096 384.813 125.896 384.789 125.718 384.78C125.541 384.761 125.368 384.752 125.2 384.752C124.659 384.752 124.248 384.836 123.968 385.004C123.688 385.172 123.548 385.429 123.548 385.774ZM131.763 384.374V388H129.817V380.524H131.609V381.966C131.889 381.49 132.295 381.117 132.827 380.846C133.359 380.575 133.924 380.44 134.521 380.44V382.456C133.98 382.419 133.499 382.447 133.079 382.54C132.669 382.624 132.347 382.815 132.113 383.114C131.88 383.403 131.763 383.823 131.763 384.374ZM134.987 384.262C134.987 383.525 135.123 382.862 135.393 382.274C135.673 381.686 136.061 381.224 136.555 380.888C137.059 380.552 137.643 380.384 138.305 380.384C138.753 380.384 139.164 380.477 139.537 380.664C139.911 380.851 140.237 381.126 140.517 381.49V377.948H142.449V388H140.671V386.922C140.373 387.305 140.023 387.603 139.621 387.818C139.229 388.033 138.791 388.14 138.305 388.14C137.643 388.14 137.059 387.972 136.555 387.636C136.061 387.291 135.673 386.824 135.393 386.236C135.123 385.648 134.987 384.99 134.987 384.262ZM136.989 384.262C136.989 384.962 137.162 385.494 137.507 385.858C137.853 386.222 138.263 386.404 138.739 386.404C139.066 386.404 139.36 386.32 139.621 386.152C139.892 385.984 140.107 385.741 140.265 385.424C140.424 385.097 140.503 384.701 140.503 384.234C140.503 383.767 140.419 383.375 140.251 383.058C140.093 382.741 139.878 382.503 139.607 382.344C139.346 382.185 139.057 382.106 138.739 382.106C138.263 382.106 137.853 382.288 137.507 382.652C137.162 383.007 136.989 383.543 136.989 384.262ZM150.5 385.606C150.5 386.381 150.211 386.997 149.632 387.454C149.063 387.911 148.246 388.14 147.182 388.14C146.128 388.14 145.302 387.902 144.704 387.426C144.116 386.941 143.785 386.283 143.71 385.452H145.572C145.582 385.835 145.736 386.143 146.034 386.376C146.342 386.6 146.734 386.712 147.21 386.712C147.593 386.712 147.91 386.651 148.162 386.53C148.414 386.399 148.54 386.203 148.54 385.942C148.54 385.709 148.461 385.531 148.302 385.41C148.144 385.289 147.882 385.195 147.518 385.13L146.174 384.878C145.502 384.757 144.975 384.514 144.592 384.15C144.21 383.786 144.018 383.315 144.018 382.736C144.018 382.269 144.144 381.859 144.396 381.504C144.648 381.149 145.003 380.874 145.46 380.678C145.918 380.482 146.454 380.384 147.07 380.384C147.696 380.384 148.246 380.491 148.722 380.706C149.208 380.911 149.59 381.21 149.87 381.602C150.16 381.994 150.328 382.456 150.374 382.988H148.512C148.484 382.624 148.34 382.339 148.078 382.134C147.817 381.919 147.481 381.812 147.07 381.812C146.716 381.812 146.426 381.877 146.202 382.008C145.988 382.129 145.88 382.311 145.88 382.554C145.88 382.778 145.96 382.946 146.118 383.058C146.277 383.161 146.524 383.245 146.86 383.31L148.302 383.576C149.03 383.716 149.576 383.954 149.94 384.29C150.314 384.626 150.5 385.065 150.5 385.606Z" fill="white"/>
<path d="M249.53 388H247.402V379.866H244.238V377.948H252.708V379.866H249.53V388ZM255.263 384.374V388H253.317V380.524H255.109V381.966C255.389 381.49 255.795 381.117 256.327 380.846C256.859 380.575 257.424 380.44 258.021 380.44V382.456C257.48 382.419 256.999 382.447 256.579 382.54C256.169 382.624 255.847 382.815 255.613 383.114C255.38 383.403 255.263 383.823 255.263 384.374ZM263.484 388V387.076C263.241 387.421 262.933 387.687 262.56 387.874C262.187 388.051 261.743 388.14 261.23 388.14C260.455 388.14 259.83 387.93 259.354 387.51C258.878 387.09 258.64 386.53 258.64 385.83C258.64 385.102 258.929 384.547 259.508 384.164C260.087 383.781 260.917 383.59 262 383.59C262.215 383.59 262.42 383.599 262.616 383.618C262.812 383.627 263.022 383.646 263.246 383.674V383.226C263.246 382.806 263.134 382.479 262.91 382.246C262.686 382.013 262.369 381.896 261.958 381.896C261.538 381.896 261.207 382.013 260.964 382.246C260.721 382.479 260.581 382.806 260.544 383.226H258.794C258.831 382.647 258.985 382.148 259.256 381.728C259.536 381.299 259.905 380.967 260.362 380.734C260.829 380.501 261.361 380.384 261.958 380.384C262.938 380.384 263.699 380.641 264.24 381.154C264.791 381.667 265.066 382.381 265.066 383.296V388H263.484ZM260.474 385.774C260.474 386.082 260.577 386.329 260.782 386.516C260.997 386.703 261.286 386.796 261.65 386.796C262.145 386.796 262.532 386.67 262.812 386.418C263.101 386.157 263.246 385.811 263.246 385.382V384.85C263.022 384.813 262.821 384.789 262.644 384.78C262.467 384.761 262.294 384.752 262.126 384.752C261.585 384.752 261.174 384.836 260.894 385.004C260.614 385.172 260.474 385.429 260.474 385.774ZM268.689 383.926V388H266.743V380.524H268.535V381.588C268.815 381.215 269.142 380.921 269.515 380.706C269.898 380.491 270.336 380.384 270.831 380.384C271.587 380.384 272.198 380.627 272.665 381.112C273.132 381.588 273.365 382.274 273.365 383.17V388H271.433V383.828C271.433 383.268 271.321 382.843 271.097 382.554C270.882 382.255 270.556 382.106 270.117 382.106C269.856 382.106 269.613 382.176 269.389 382.316C269.174 382.447 269.002 382.647 268.871 382.918C268.75 383.179 268.689 383.515 268.689 383.926ZM281.356 385.606C281.356 386.381 281.066 386.997 280.488 387.454C279.918 387.911 279.102 388.14 278.038 388.14C276.983 388.14 276.157 387.902 275.56 387.426C274.972 386.941 274.64 386.283 274.566 385.452H276.428C276.437 385.835 276.591 386.143 276.89 386.376C277.198 386.6 277.59 386.712 278.066 386.712C278.448 386.712 278.766 386.651 279.018 386.53C279.27 386.399 279.396 386.203 279.396 385.942C279.396 385.709 279.316 385.531 279.158 385.41C278.999 385.289 278.738 385.195 278.374 385.13L277.03 384.878C276.358 384.757 275.83 384.514 275.448 384.15C275.065 383.786 274.874 383.315 274.874 382.736C274.874 382.269 275 381.859 275.252 381.504C275.504 381.149 275.858 380.874 276.316 380.678C276.773 380.482 277.31 380.384 277.926 380.384C278.551 380.384 279.102 380.491 279.578 380.706C280.063 380.911 280.446 381.21 280.726 381.602C281.015 381.994 281.183 382.456 281.23 382.988H279.368C279.34 382.624 279.195 382.339 278.934 382.134C278.672 381.919 278.336 381.812 277.926 381.812C277.571 381.812 277.282 381.877 277.058 382.008C276.843 382.129 276.736 382.311 276.736 382.554C276.736 382.778 276.815 382.946 276.974 383.058C277.132 383.161 277.38 383.245 277.716 383.31L279.158 383.576C279.886 383.716 280.432 383.954 280.796 384.29C281.169 384.626 281.356 385.065 281.356 385.606ZM285.18 388H283.248V382.19H281.736V380.524H283.248V380.118C283.248 379.371 283.444 378.797 283.836 378.396C284.237 377.995 284.825 377.794 285.6 377.794C285.843 377.794 286.062 377.817 286.258 377.864C286.463 377.901 286.645 377.953 286.804 378.018V379.558C286.701 379.511 286.585 379.479 286.454 379.46C286.323 379.441 286.193 379.432 286.062 379.432C285.801 379.432 285.586 379.488 285.418 379.6C285.259 379.712 285.18 379.899 285.18 380.16V380.524H287.126V382.19H285.18V388ZM291.169 388.126C290.422 388.126 289.764 387.967 289.195 387.65C288.635 387.323 288.201 386.866 287.893 386.278C287.585 385.69 287.431 385.009 287.431 384.234C287.431 383.487 287.589 382.825 287.907 382.246C288.224 381.667 288.663 381.215 289.223 380.888C289.783 380.552 290.422 380.384 291.141 380.384C291.729 380.384 292.261 380.496 292.737 380.72C293.222 380.935 293.628 381.243 293.955 381.644C294.281 382.045 294.515 382.512 294.655 383.044C294.795 383.567 294.818 384.131 294.725 384.738H288.579V383.506H292.667C292.648 382.983 292.494 382.573 292.205 382.274C291.925 381.966 291.556 381.812 291.099 381.812C290.735 381.812 290.427 381.905 290.175 382.092C289.923 382.279 289.727 382.554 289.587 382.918C289.456 383.273 289.391 383.711 289.391 384.234C289.391 384.747 289.456 385.181 289.587 385.536C289.717 385.891 289.913 386.161 290.175 386.348C290.436 386.535 290.753 386.628 291.127 386.628C291.556 386.628 291.911 386.525 292.191 386.32C292.471 386.115 292.667 385.83 292.779 385.466H294.711C294.496 386.306 294.081 386.959 293.465 387.426C292.849 387.893 292.083 388.126 291.169 388.126ZM297.974 384.374V388H296.028V380.524H297.82V381.966C298.1 381.49 298.506 381.117 299.038 380.846C299.57 380.575 300.135 380.44 300.732 380.44V382.456C300.191 382.419 299.71 382.447 299.29 382.54C298.879 382.624 298.557 382.815 298.324 383.114C298.091 383.403 297.974 383.823 297.974 384.374Z" fill="white"/>
<path d="M31.256 118.136H29.072V116.144C27.488 115.952 26.224 115.384 25.28 114.44C24.352 113.48 23.832 112.256 23.72 110.768H27.056C27.088 111.616 27.376 112.288 27.92 112.784C28.464 113.28 29.232 113.528 30.224 113.528C30.784 113.528 31.28 113.448 31.712 113.288C32.16 113.128 32.512 112.896 32.768 112.592C33.024 112.272 33.152 111.896 33.152 111.464C33.152 110.952 32.96 110.544 32.576 110.24C32.208 109.92 31.712 109.696 31.088 109.568L28.64 109.064C28.064 108.936 27.512 108.76 26.984 108.536C26.472 108.312 26.016 108.032 25.616 107.696C25.216 107.344 24.896 106.912 24.656 106.4C24.432 105.888 24.32 105.272 24.32 104.552C24.32 103.688 24.52 102.912 24.92 102.224C25.32 101.52 25.88 100.944 26.6 100.496C27.32 100.048 28.144 99.752 29.072 99.608V97.592H31.256V99.608C32.248 99.736 33.12 100.032 33.872 100.496C34.64 100.96 35.248 101.56 35.696 102.296C36.16 103.032 36.424 103.896 36.488 104.888H33.152C33.12 104.36 32.976 103.904 32.72 103.52C32.48 103.12 32.152 102.808 31.736 102.584C31.32 102.36 30.832 102.248 30.272 102.248C29.76 102.248 29.312 102.336 28.928 102.512C28.544 102.672 28.24 102.904 28.016 103.208C27.808 103.512 27.704 103.872 27.704 104.288C27.704 104.656 27.8 104.968 27.992 105.224C28.184 105.464 28.44 105.656 28.76 105.8C29.08 105.928 29.416 106.032 29.768 106.112L32.168 106.616C33.128 106.824 33.944 107.12 34.616 107.504C35.288 107.872 35.8 108.352 36.152 108.944C36.52 109.52 36.704 110.216 36.704 111.032C36.704 111.976 36.488 112.824 36.056 113.576C35.624 114.328 35 114.936 34.184 115.4C33.368 115.848 32.392 116.112 31.256 116.192V118.136ZM44.489 116H41.153V102.656H38.081V99.776H44.489V116ZM53.138 116.24C51.986 116.24 50.946 116.016 50.018 115.568C49.106 115.12 48.378 114.512 47.834 113.744C47.29 112.96 47.002 112.064 46.97 111.056H50.306C50.402 111.76 50.698 112.304 51.194 112.688C51.706 113.072 52.346 113.264 53.114 113.264C53.77 113.264 54.298 113.144 54.698 112.904C55.098 112.648 55.386 112.328 55.562 111.944C55.738 111.544 55.826 111.128 55.826 110.696C55.826 110.264 55.73 109.856 55.538 109.472C55.346 109.088 55.042 108.768 54.626 108.512C54.21 108.256 53.674 108.128 53.018 108.128C52.378 108.128 51.818 108.264 51.338 108.536C50.858 108.808 50.498 109.216 50.258 109.76L47.522 108.872L48.938 99.776H58.322V102.752H51.362L50.858 106.064C51.258 105.792 51.69 105.6 52.154 105.488C52.618 105.36 53.09 105.296 53.57 105.296C54.866 105.296 55.93 105.552 56.762 106.064C57.61 106.576 58.242 107.248 58.658 108.08C59.074 108.912 59.282 109.784 59.282 110.696C59.282 111.384 59.154 112.064 58.898 112.736C58.642 113.392 58.25 113.984 57.722 114.512C57.21 115.04 56.57 115.464 55.802 115.784C55.05 116.088 54.162 116.24 53.138 116.24ZM65.4313 114.704C65.4313 115.664 65.1913 116.504 64.7113 117.224C64.2313 117.944 63.5833 118.504 62.7673 118.904C61.9673 119.304 61.0633 119.504 60.0553 119.504V117.728C60.9513 117.712 61.6793 117.512 62.2393 117.128C62.7993 116.76 63.1273 116.248 63.2233 115.592C63.1113 115.624 63.0153 115.648 62.9353 115.664C62.8713 115.664 62.7993 115.664 62.7193 115.664C62.1753 115.664 61.7193 115.472 61.3513 115.088C60.9993 114.704 60.8232 114.24 60.8232 113.696C60.8232 113.056 61.0313 112.552 61.4473 112.184C61.8633 111.8 62.3753 111.608 62.9833 111.608C63.7513 111.608 64.3513 111.872 64.7833 112.4C65.2153 112.912 65.4313 113.68 65.4313 114.704ZM73.1068 116.24C71.9548 116.24 70.9148 116.016 69.9868 115.568C69.0748 115.12 68.3468 114.512 67.8027 113.744C67.2588 112.96 66.9708 112.064 66.9388 111.056H70.2748C70.3708 111.76 70.6668 112.304 71.1628 112.688C71.6748 113.072 72.3148 113.264 73.0828 113.264C73.7388 113.264 74.2668 113.144 74.6668 112.904C75.0668 112.648 75.3548 112.328 75.5308 111.944C75.7068 111.544 75.7948 111.128 75.7948 110.696C75.7948 110.264 75.6988 109.856 75.5068 109.472C75.3148 109.088 75.0108 108.768 74.5948 108.512C74.1788 108.256 73.6428 108.128 72.9868 108.128C72.3468 108.128 71.7868 108.264 71.3068 108.536C70.8268 108.808 70.4668 109.216 70.2268 109.76L67.4908 108.872L68.9068 99.776H78.2908V102.752H71.3308L70.8268 106.064C71.2268 105.792 71.6588 105.6 72.1228 105.488C72.5868 105.36 73.0588 105.296 73.5388 105.296C74.8348 105.296 75.8988 105.552 76.7308 106.064C77.5788 106.576 78.2108 107.248 78.6268 108.08C79.0428 108.912 79.2508 109.784 79.2508 110.696C79.2508 111.384 79.1228 112.064 78.8668 112.736C78.6108 113.392 78.2188 113.984 77.6908 114.512C77.1788 115.04 76.5388 115.464 75.7708 115.784C75.0188 116.088 74.1308 116.24 73.1068 116.24ZM86.6313 99.584C87.8633 99.584 88.9433 99.832 89.8713 100.328C90.8153 100.808 91.5513 101.456 92.0793 102.272C92.6233 103.088 92.8953 103.984 92.8953 104.96C92.8953 105.616 92.8233 106.216 92.6793 106.76C92.5353 107.304 92.3113 107.848 92.0073 108.392C91.7033 108.92 91.2873 109.488 90.7593 110.096L85.8873 116H82.1193L86.7753 110.312C86.6313 110.36 86.4953 110.392 86.3673 110.408C86.2393 110.424 86.1033 110.432 85.9593 110.432C84.8553 110.432 83.8793 110.208 83.0313 109.76C82.1993 109.312 81.5433 108.696 81.0633 107.912C80.5833 107.112 80.3433 106.2 80.3433 105.176C80.3433 104.136 80.6073 103.192 81.1353 102.344C81.6633 101.496 82.3993 100.824 83.3433 100.328C84.3033 99.832 85.3993 99.584 86.6313 99.584ZM86.6073 102.368C86.0953 102.368 85.6233 102.472 85.1913 102.68C84.7753 102.888 84.4393 103.192 84.1833 103.592C83.9273 103.992 83.7993 104.48 83.7993 105.056C83.7993 105.664 83.9273 106.176 84.1833 106.592C84.4393 107.008 84.7753 107.32 85.1913 107.528C85.6233 107.72 86.0953 107.816 86.6073 107.816C87.3593 107.816 88.0153 107.6 88.5753 107.168C89.1353 106.72 89.4153 106.024 89.4153 105.08C89.4153 104.488 89.2793 103.992 89.0073 103.592C88.7513 103.192 88.4073 102.888 87.9753 102.68C87.5593 102.472 87.1033 102.368 86.6073 102.368ZM100.318 116.24C99.1657 116.24 98.1257 116.016 97.1977 115.568C96.2857 115.12 95.5577 114.512 95.0137 113.744C94.4697 112.96 94.1817 112.064 94.1497 111.056H97.4857C97.5817 111.76 97.8777 112.304 98.3737 112.688C98.8857 113.072 99.5257 113.264 100.294 113.264C100.95 113.264 101.478 113.144 101.878 112.904C102.278 112.648 102.566 112.328 102.742 111.944C102.918 111.544 103.006 111.128 103.006 110.696C103.006 110.264 102.91 109.856 102.718 109.472C102.526 109.088 102.222 108.768 101.806 108.512C101.39 108.256 100.854 108.128 100.198 108.128C99.5577 108.128 98.9977 108.264 98.5177 108.536C98.0377 108.808 97.6777 109.216 97.4377 109.76L94.7017 108.872L96.1177 99.776H105.502V102.752H98.5417L98.0377 106.064C98.4377 105.792 98.8697 105.6 99.3337 105.488C99.7977 105.36 100.27 105.296 100.75 105.296C102.046 105.296 103.11 105.552 103.942 106.064C104.79 106.576 105.422 107.248 105.838 108.08C106.254 108.912 106.462 109.784 106.462 110.696C106.462 111.384 106.334 112.064 106.078 112.736C105.822 113.392 105.43 113.984 104.902 114.512C104.39 115.04 103.75 115.464 102.982 115.784C102.23 116.088 101.342 116.24 100.318 116.24ZM112.611 113.864C112.611 114.52 112.403 115.064 111.987 115.496C111.571 115.912 111.035 116.12 110.379 116.12C109.723 116.12 109.179 115.912 108.747 115.496C108.331 115.064 108.123 114.52 108.123 113.864C108.123 113.192 108.331 112.648 108.747 112.232C109.179 111.8 109.723 111.584 110.379 111.584C111.035 111.584 111.571 111.8 111.987 112.232C112.403 112.648 112.611 113.192 112.611 113.864ZM114.151 107.912C114.151 105.224 114.695 103.16 115.783 101.72C116.871 100.264 118.415 99.536 120.415 99.536C122.415 99.536 123.959 100.264 125.047 101.72C126.151 103.16 126.703 105.224 126.703 107.912C126.703 110.584 126.159 112.64 125.071 114.08C123.999 115.52 122.447 116.24 120.415 116.24C118.399 116.24 116.847 115.52 115.759 114.08C114.687 112.64 114.151 110.584 114.151 107.912ZM117.583 107.912C117.583 109.656 117.823 110.984 118.303 111.896C118.783 112.808 119.487 113.264 120.415 113.264C121.343 113.264 122.047 112.808 122.527 111.896C123.023 110.984 123.271 109.656 123.271 107.912C123.271 106.152 123.023 104.816 122.527 103.904C122.047 102.976 121.343 102.512 120.415 102.512C119.503 102.512 118.799 102.976 118.303 103.904C117.823 104.832 117.583 106.168 117.583 107.912ZM134.466 116H131.13V102.656H128.058V99.776H134.466V116ZM143.115 116.24C141.963 116.24 140.923 116.016 139.995 115.568C139.083 115.12 138.355 114.512 137.811 113.744C137.267 112.96 136.979 112.064 136.947 111.056H140.283C140.379 111.76 140.675 112.304 141.171 112.688C141.683 113.072 142.323 113.264 143.091 113.264C143.747 113.264 144.275 113.144 144.675 112.904C145.075 112.648 145.363 112.328 145.539 111.944C145.715 111.544 145.803 111.128 145.803 110.696C145.803 110.264 145.707 109.856 145.515 109.472C145.323 109.088 145.019 108.768 144.603 108.512C144.187 108.256 143.651 108.128 142.995 108.128C142.355 108.128 141.795 108.264 141.315 108.536C140.835 108.808 140.475 109.216 140.235 109.76L137.499 108.872L138.915 99.776H148.299V102.752H141.339L140.835 106.064C141.235 105.792 141.667 105.6 142.131 105.488C142.595 105.36 143.067 105.296 143.547 105.296C144.843 105.296 145.907 105.552 146.739 106.064C147.587 106.576 148.219 107.248 148.635 108.08C149.051 108.912 149.259 109.784 149.259 110.696C149.259 111.384 149.131 112.064 148.875 112.736C148.619 113.392 148.227 113.984 147.699 114.512C147.187 115.04 146.547 115.464 145.779 115.784C145.027 116.088 144.139 116.24 143.115 116.24Z" fill="white"/>
<path d="M29.256 86.24C28.456 86.24 27.7147 86.0907 27.032 85.792C26.3493 85.4827 25.752 85.056 25.24 84.512C24.7387 83.968 24.344 83.3333 24.056 82.608C23.7787 81.872 23.64 81.0827 23.64 80.24C23.64 79.3973 23.7787 78.6133 24.056 77.888C24.344 77.1627 24.7387 76.5333 25.24 76C25.752 75.456 26.3493 75.0347 27.032 74.736C27.7147 74.4267 28.456 74.272 29.256 74.272C30.1627 74.272 31 74.464 31.768 74.848C32.536 75.2213 33.176 75.7547 33.688 76.448C34.2107 77.1307 34.5467 77.9307 34.696 78.848H33.432C33.3147 78.1653 33.0587 77.5627 32.664 77.04C32.2693 76.5067 31.7787 76.0907 31.192 75.792C30.616 75.4933 29.9707 75.344 29.256 75.344C28.616 75.344 28.0293 75.4667 27.496 75.712C26.9627 75.9573 26.4987 76.2987 26.104 76.736C25.7093 77.1733 25.4053 77.6907 25.192 78.288C24.9787 78.8853 24.872 79.536 24.872 80.24C24.872 80.9547 24.9787 81.6107 25.192 82.208C25.4053 82.8053 25.7093 83.328 26.104 83.776C26.4987 84.2133 26.9627 84.5547 27.496 84.8C28.0293 85.0453 28.616 85.168 29.256 85.168C29.9707 85.168 30.6213 85.0187 31.208 84.72C31.7947 84.4107 32.28 83.9893 32.664 83.456C33.0587 82.9227 33.3147 82.32 33.432 81.648H34.696C34.5467 82.5547 34.216 83.3547 33.704 84.048C33.192 84.7413 32.5467 85.28 31.768 85.664C31 86.048 30.1627 86.24 29.256 86.24ZM41.7438 86V84.464C41.4984 84.9867 41.1304 85.4027 40.6398 85.712C40.1491 86.0107 39.5731 86.16 38.9118 86.16C38.0371 86.16 37.3384 85.936 36.8158 85.488C36.2931 85.0293 36.0318 84.4213 36.0318 83.664C36.0318 82.8427 36.3571 82.224 37.0078 81.808C37.6584 81.3813 38.6238 81.168 39.9038 81.168C40.1598 81.168 40.4104 81.1733 40.6558 81.184C40.9011 81.1947 41.2264 81.2213 41.6318 81.264V80.544C41.6318 79.84 41.4504 79.2907 41.0878 78.896C40.7358 78.5013 40.2398 78.304 39.5998 78.304C38.9171 78.304 38.3731 78.5067 37.9678 78.912C37.5624 79.3067 37.3544 79.8453 37.3438 80.528H36.3198C36.3304 79.8987 36.4744 79.3547 36.7518 78.896C37.0291 78.4267 37.4078 78.064 37.8878 77.808C38.3784 77.5413 38.9438 77.408 39.5838 77.408C40.5758 77.408 41.3438 77.68 41.8878 78.224C42.4318 78.768 42.7038 79.5307 42.7038 80.512V86H41.7438ZM37.1038 83.632C37.1038 84.144 37.2851 84.56 37.6478 84.88C38.0104 85.1893 38.4851 85.344 39.0718 85.344C39.8611 85.344 40.4851 85.1093 40.9438 84.64C41.4024 84.16 41.6318 83.5253 41.6318 82.736V81.984C41.2691 81.952 40.9544 81.9307 40.6878 81.92C40.4318 81.9093 40.1864 81.904 39.9518 81.904C39.0024 81.904 38.2878 82.048 37.8078 82.336C37.3384 82.6133 37.1038 83.0453 37.1038 83.632ZM46.1798 81.488V86H45.0598V77.568H46.0998V79.488C46.3984 78.8693 46.8358 78.3733 47.4118 78C47.9878 77.6267 48.6224 77.44 49.3158 77.44V78.608C48.7291 78.5867 48.1958 78.688 47.7158 78.912C47.2464 79.136 46.8731 79.4667 46.5958 79.904C46.3184 80.3413 46.1798 80.8693 46.1798 81.488ZM50.0451 81.776C50.0451 80.912 50.1945 80.1547 50.4931 79.504C50.8025 78.8427 51.2345 78.3307 51.7891 77.968C52.3438 77.5947 52.9998 77.408 53.7571 77.408C54.3865 77.408 54.9571 77.5787 55.4691 77.92C55.9811 78.2507 56.3758 78.72 56.6531 79.328V74.512H57.7731V86H56.7331V84.224C56.4345 84.832 56.0238 85.3067 55.5011 85.648C54.9891 85.9893 54.4078 86.16 53.7571 86.16C52.9998 86.16 52.3438 85.9787 51.7891 85.616C51.2345 85.2427 50.8025 84.7253 50.4931 84.064C50.1945 83.4027 50.0451 82.64 50.0451 81.776ZM51.1811 81.776C51.1811 82.8533 51.4318 83.6907 51.9331 84.288C52.4345 84.8853 53.0958 85.184 53.9171 85.184C54.4718 85.184 54.9518 85.0453 55.3571 84.768C55.7731 84.4907 56.0931 84.096 56.3171 83.584C56.5518 83.0613 56.6691 82.448 56.6691 81.744C56.6691 81.04 56.5465 80.4373 56.3011 79.936C56.0665 79.4347 55.7411 79.0507 55.3251 78.784C54.9198 78.5173 54.4505 78.384 53.9171 78.384C53.0958 78.384 52.4345 78.6827 51.9331 79.28C51.4318 79.8773 51.1811 80.7093 51.1811 81.776ZM71.3521 82.784C71.3521 83.808 71.0055 84.6027 70.3121 85.168C69.6295 85.7227 68.7228 86 67.5921 86H63.6241V74.512H67.3521C68.4615 74.512 69.3255 74.768 69.9441 75.28C70.5735 75.792 70.8881 76.5227 70.8881 77.472C70.8881 78.0373 70.7175 78.5493 70.3761 79.008C70.0455 79.4667 69.5868 79.8027 69.0001 80.016C69.7788 80.208 70.3655 80.544 70.7601 81.024C71.1548 81.504 71.3521 82.0907 71.3521 82.784ZM67.2881 75.488H64.7441V79.584H67.2881C68.0668 79.584 68.6641 79.4027 69.0801 79.04C69.5068 78.6773 69.7201 78.176 69.7201 77.536C69.7201 76.896 69.5068 76.3947 69.0801 76.032C68.6641 75.6693 68.0668 75.488 67.2881 75.488ZM67.5281 80.56H64.7441V85.024H67.5281C68.3708 85.024 69.0268 84.8267 69.4961 84.432C69.9655 84.0267 70.2001 83.4667 70.2001 82.752C70.2001 82.0587 69.9655 81.52 69.4961 81.136C69.0268 80.752 68.3708 80.56 67.5281 80.56ZM78.7125 86V84.464C78.4672 84.9867 78.0992 85.4027 77.6085 85.712C77.1178 86.0107 76.5418 86.16 75.8805 86.16C75.0058 86.16 74.3072 85.936 73.7845 85.488C73.2618 85.0293 73.0005 84.4213 73.0005 83.664C73.0005 82.8427 73.3258 82.224 73.9765 81.808C74.6272 81.3813 75.5925 81.168 76.8725 81.168C77.1285 81.168 77.3792 81.1733 77.6245 81.184C77.8698 81.1947 78.1952 81.2213 78.6005 81.264V80.544C78.6005 79.84 78.4192 79.2907 78.0565 78.896C77.7045 78.5013 77.2085 78.304 76.5685 78.304C75.8858 78.304 75.3418 78.5067 74.9365 78.912C74.5312 79.3067 74.3232 79.8453 74.3125 80.528H73.2885C73.2992 79.8987 73.4432 79.3547 73.7205 78.896C73.9978 78.4267 74.3765 78.064 74.8565 77.808C75.3472 77.5413 75.9125 77.408 76.5525 77.408C77.5445 77.408 78.3125 77.68 78.8565 78.224C79.4005 78.768 79.6725 79.5307 79.6725 80.512V86H78.7125ZM74.0725 83.632C74.0725 84.144 74.2538 84.56 74.6165 84.88C74.9792 85.1893 75.4538 85.344 76.0405 85.344C76.8298 85.344 77.4538 85.1093 77.9125 84.64C78.3712 84.16 78.6005 83.5253 78.6005 82.736V81.984C78.2378 81.952 77.9232 81.9307 77.6565 81.92C77.4005 81.9093 77.1552 81.904 76.9205 81.904C75.9712 81.904 75.2565 82.048 74.7765 82.336C74.3072 82.6133 74.0725 83.0453 74.0725 83.632ZM83.1485 86H82.0285V74.512H83.1485V86ZM90.7594 86V84.464C90.514 84.9867 90.146 85.4027 89.6554 85.712C89.1647 86.0107 88.5887 86.16 87.9274 86.16C87.0527 86.16 86.354 85.936 85.8314 85.488C85.3087 85.0293 85.0474 84.4213 85.0474 83.664C85.0474 82.8427 85.3727 82.224 86.0234 81.808C86.674 81.3813 87.6394 81.168 88.9194 81.168C89.1754 81.168 89.426 81.1733 89.6714 81.184C89.9167 81.1947 90.242 81.2213 90.6474 81.264V80.544C90.6474 79.84 90.466 79.2907 90.1034 78.896C89.7514 78.5013 89.2554 78.304 88.6154 78.304C87.9327 78.304 87.3887 78.5067 86.9834 78.912C86.578 79.3067 86.37 79.8453 86.3594 80.528H85.3354C85.346 79.8987 85.49 79.3547 85.7674 78.896C86.0447 78.4267 86.4234 78.064 86.9034 77.808C87.394 77.5413 87.9594 77.408 88.5994 77.408C89.5914 77.408 90.3594 77.68 90.9034 78.224C91.4474 78.768 91.7194 79.5307 91.7194 80.512V86H90.7594ZM86.1194 83.632C86.1194 84.144 86.3007 84.56 86.6634 84.88C87.026 85.1893 87.5007 85.344 88.0874 85.344C88.8767 85.344 89.5007 85.1093 89.9594 84.64C90.418 84.16 90.6474 83.5253 90.6474 82.736V81.984C90.2847 81.952 89.97 81.9307 89.7034 81.92C89.4474 81.9093 89.202 81.904 88.9674 81.904C88.018 81.904 87.3034 82.048 86.8234 82.336C86.354 82.6133 86.1194 83.0453 86.1194 83.632ZM95.1954 81.088V86H94.0754V77.568H95.1154V79.152C95.3927 78.64 95.7714 78.224 96.2514 77.904C96.742 77.5733 97.2914 77.408 97.8994 77.408C98.774 77.408 99.4727 77.68 99.9954 78.224C100.529 78.768 100.795 79.536 100.795 80.528V86H99.6754V80.912C99.6754 80.1013 99.494 79.4773 99.1314 79.04C98.7794 78.6027 98.2567 78.384 97.5634 78.384C97.126 78.384 96.726 78.5013 96.3634 78.736C96.0007 78.96 95.7127 79.2747 95.4994 79.68C95.2967 80.0853 95.1954 80.5547 95.1954 81.088ZM106.306 86.176C105.559 86.176 104.903 85.9893 104.338 85.616C103.772 85.2427 103.33 84.7253 103.01 84.064C102.69 83.4027 102.53 82.64 102.53 81.776C102.53 80.9227 102.69 80.1707 103.01 79.52C103.33 78.8587 103.772 78.3413 104.338 77.968C104.914 77.5947 105.57 77.408 106.306 77.408C106.956 77.408 107.543 77.5467 108.066 77.824C108.588 78.1013 109.015 78.496 109.346 79.008C109.687 79.52 109.911 80.128 110.017 80.832H108.882C108.754 80.064 108.46 79.4667 108.002 79.04C107.554 78.6027 106.988 78.384 106.306 78.384C105.783 78.384 105.319 78.528 104.914 78.816C104.519 79.104 104.21 79.4987 103.986 80C103.772 80.5013 103.666 81.0933 103.666 81.776C103.666 82.4587 103.772 83.0613 103.986 83.584C104.21 84.096 104.519 84.496 104.914 84.784C105.319 85.0613 105.783 85.2 106.306 85.2C106.999 85.2 107.57 84.9867 108.018 84.56C108.466 84.1227 108.754 83.5147 108.882 82.736H110.017C109.922 83.4507 109.703 84.064 109.362 84.576C109.031 85.088 108.604 85.4827 108.082 85.76C107.559 86.0373 106.967 86.176 106.306 86.176ZM115.012 86.16C114.223 86.16 113.53 85.9787 112.932 85.616C112.346 85.2427 111.887 84.72 111.556 84.048C111.236 83.376 111.076 82.5973 111.076 81.712C111.076 80.8907 111.242 80.16 111.572 79.52C111.914 78.8693 112.372 78.3573 112.948 77.984C113.535 77.6 114.202 77.408 114.948 77.408C115.546 77.408 116.084 77.5253 116.564 77.76C117.055 77.984 117.466 78.304 117.796 78.72C118.138 79.136 118.388 79.6267 118.548 80.192C118.719 80.7467 118.778 81.3653 118.724 82.048H111.684V81.28H117.556C117.514 80.3307 117.258 79.5947 116.788 79.072C116.33 78.5387 115.711 78.272 114.932 78.272C114.388 78.272 113.908 78.416 113.492 78.704C113.087 78.9813 112.767 79.376 112.532 79.888C112.298 80.4 112.18 81.008 112.18 81.712C112.18 82.4373 112.292 83.072 112.516 83.616C112.74 84.1493 113.06 84.56 113.476 84.848C113.903 85.136 114.41 85.28 114.996 85.28C115.7 85.28 116.282 85.0933 116.74 84.72C117.21 84.336 117.514 83.8133 117.652 83.152H118.756C118.564 84.08 118.132 84.816 117.46 85.36C116.799 85.8933 115.983 86.16 115.012 86.16Z" fill="#8C89B4"/>
<rect x="159" y="339" width="20" height="6" rx="3" fill="#F97316"/>
<circle cx="186" cy="342" r="3" fill="#8D3E08"/>
<circle cx="196" cy="342" r="3" fill="#8D3E08"/>
<defs>
<linearGradient id="paint0_linear_114_576" x1="188.124" y1="108.495" x2="194.611" y2="346.048" gradientUnits="userSpaceOnUse">
<stop stop-color="#F97316"/>
<stop offset="1" stop-color="#F79E1B"/>
</linearGradient>
</defs>
</svg>
