<?xml version="1.0" encoding="iso-8859-1"?>
<!-- Uploaded to: SVG Repo, www.svgrepo.com, Generator: SVG Repo Mixer Tools -->
<svg height="800px" width="800px" version="1.1" id="Layer_1" xmlns="http://www.w3.org/2000/svg" xmlns:xlink="http://www.w3.org/1999/xlink" 
	 viewBox="0 0 511.992 511.992" xml:space="preserve">
<path style="fill:#FEDEA1;" d="M115.2,255.714c-35.294,0-64-28.706-64-64c0-31.249,33.502-84.412,53.47-113.306l10.53-15.249
	L125.73,78.4c19.968,28.902,53.47,82.065,53.47,113.314C179.2,227.008,150.494,255.714,115.2,255.714z"/>
<path style="fill:#FFE7E5;" d="M38.4,447.996c-14.114,0-25.6-11.486-25.6-25.6s11.486-25.6,25.6-25.6h153.216
	c23.475,0,86.016-45.406,109.568-62.498l8.166-5.905c26.197-18.765,21.76-28.092,20.301-31.155
	c-0.461-0.512-3.755-2.244-11.819-2.244c-9.967,0-23.202,2.688-35.396,7.202c-22.818,8.431-89.293,37.871-95.744,40.721
	c-3.712,1.98-7.868,3.029-12.075,3.029c-9.114,0-17.613-4.907-22.187-12.8c-7.049-12.254-2.833-27.93,9.387-34.978l109.175-62.933
	c5.035-3.49,40.951-27.563,74.607-27.563c31.838,0,140.817,0.162,140.817,0.162l12.783,0.017v134.554h-88.849
	c-14.413,0-51.652,23.279-84.489,43.81c-48.597,30.379-98.85,61.79-133.461,61.79H38.4V447.996z"/>
<g>
	<path style="fill:#573A32;" d="M486.434,195.025c0,0-108.996-0.154-140.834-0.154c-36.651,0-73.677,24.166-81.485,29.551
		l-108.689,62.652c-18.347,10.581-24.661,34.108-14.089,52.446c6.835,11.861,19.584,19.226,33.28,19.226
		c6.135,0,12.211-1.485,17.664-4.309c8.329-3.686,72.533-32.094,94.592-40.243c9.096-3.362,19.046-5.641,26.982-6.246
		c-2.415,2.517-6.161,5.888-11.955,10.035l-8.277,5.982c-68.343,49.613-93.192,60.032-101.999,60.032H38.4
		c-21.171,0-38.4,17.229-38.4,38.4s17.229,38.4,38.4,38.4h107.204h46.797c38.281,0,90.112-32.401,140.237-63.735
		c26.317-16.452,66.091-41.318,77.79-41.865h75.964c14.14,0,25.6-11.46,25.6-25.6V220.625
		C512,206.502,500.557,195.051,486.434,195.025z M486.4,329.596c0,0-36.326,0-76.049,0s-161.152,105.6-217.95,105.6
		c-40.619,0-46.797,0-46.797,0H38.4c-7.066,0-12.8-5.734-12.8-12.8c0-7.074,5.734-12.8,12.8-12.8c0,0,122.701,0,153.225,0
		c30.515,0,100.659-53.248,125.175-70.801c24.525-17.562,31.198-32.802,24.405-47.07c-3.243-6.818-12.211-9.54-23.373-9.54
		c-12.203,0-27.025,3.26-39.834,7.996c-24.533,9.062-96.998,41.259-96.998,41.259c-2.014,1.161-4.215,1.715-6.383,1.715
		c-4.429,0-8.73-2.295-11.102-6.409c-3.533-6.127-1.425-13.952,4.693-17.485l109.662-63.215c0,0,35.891-25.566,67.729-25.566
		c31.829,0,140.8,0.154,140.8,0.154L486.4,329.596L486.4,329.596z"/>
	<path style="fill:#573A32;" d="M115.2,268.506c42.351,0,76.8-34.449,76.8-76.8c0-45.611-59.75-126.601-66.551-135.671
		c-4.847-6.451-15.65-6.451-20.497,0C98.15,65.105,38.4,146.095,38.4,191.706C38.4,234.057,72.849,268.506,115.2,268.506z
		 M115.2,85.687c20.147,29.158,51.2,79.701,51.2,106.027c0,28.237-22.972,51.2-51.2,51.2S64,219.951,64,191.714
		C64,165.38,95.053,114.846,115.2,85.687z"/>
</g>
</svg>